<svg viewBox="0 0 50 38" fill="none" xmlns="http://www.w3.org/2000/svg">
<path d="M7.30921 12.9545C-2.4366 18.5813 -2.43639 27.704 7.30975 33.3307C17.0559 38.9575 32.8572 38.9575 42.603 33.3307C52.3488 27.7039 52.3486 18.5812 42.6024 12.9545C32.8563 7.32767 17.055 7.32767 7.30921 12.9545Z" fill="white" fill-opacity="0.05"/>
<path d="M24.9502 16.6188L11.5464 8.82959L11.5892 23.9446L24.9928 31.7339L24.9502 16.6188Z" fill="#EDA229"/>
<path d="M38.1042 9.03258L24.7007 1.24316L11.5464 8.83756L24.9502 16.6271L38.1042 9.03258Z" fill="#F9D641"/>
<path d="M24.9502 16.6188L24.9929 31.7339L38.147 24.1393L38.1042 9.02441L24.9502 16.6188Z" fill="#FBBB1E"/>
<path d="M33.3183 11.7876L33.3611 26.9022L31.0156 28.2318V13.1172L33.3183 11.7876Z" fill="#7A69E2"/>
<path d="M31.0161 13.1176L17.6123 5.32815L19.9074 3.99951L33.3112 11.7889L33.309 11.7935L33.3186 11.7879" fill="#9978FF"/>
<path d="M29.4492 4.00244L31.74 5.33377L18.6234 12.9562L16.3306 11.6323L16.3281 11.6276L29.4492 4.00244Z" fill="#9978FF"/>
<path d="M18.6234 12.9561L18.5805 28.0124L16.2778 26.6693L16.3207 11.6265L16.3306 11.6322" fill="#6A52CE"/>
<path opacity="0.5" d="M32.6506 8.83503C32.7626 9.50691 32.7626 10.2908 32.7626 10.2908C32.7626 10.2908 27.6676 11.2427 25.0919 9.11503L24.7689 8.84343C24.7689 8.84343 21.6205 11.6907 17.8132 10.9627L17.1972 8.89113C17.1972 8.89113 17.7571 8.38722 18.7649 8.16332C18.7649 8.16332 17.645 7.60348 17.1411 6.48362L20.2976 4.48193C20.2976 4.48193 22.7402 6.20362 22.8521 6.31565C22.9641 6.42769 24.0279 6.76363 24.0279 6.76363C24.0279 6.76363 23.636 6.65159 24.6438 5.30784C25.6516 3.96408 28.0032 4.80393 26.7154 6.9316C25.4275 9.05927 28.619 8.66723 29.6829 8.72333C30.7468 8.77943 32.6506 8.83503 32.6506 8.83503Z" fill="#6A52CE"/>
<path d="M29.654 1.15495C30.55 1.49273 29.3341 5.48419 24.813 8.77908C24.813 8.77908 29.9006 2.18796 26.4707 0.0791016C26.4707 0.0791016 27.2507 0.679424 28.1951 0.998566C28.6654 1.15746 29.3571 1.04291 29.654 1.15495Z" fill="#5848BC"/>
<path d="M29.6556 1.15479C27.2313 2.26305 26.0113 3.90058 25.4048 5.37821C24.6486 7.22033 24.8458 8.81318 24.8458 8.81318C23.9112 6.6578 23.8672 4.91697 24.1972 3.57086C24.7905 1.1479 26.5928 0 26.5928 0C26.5928 0 27.3635 0.430001 27.9241 0.617119C28.4848 0.804237 29.6556 1.15479 29.6556 1.15479Z" fill="#9978FF"/>
<path d="M24.8458 8.81361C23.9112 6.65823 23.8672 4.9174 24.1972 3.57129C24.0617 4.30951 25.1817 5.35848 25.4046 5.37864C24.6486 7.22093 24.8458 8.81361 24.8458 8.81361Z" fill="#5848BC"/>
<path d="M16.9187 4.35941C16.4363 4.52704 18.9586 8.72107 24.8696 8.77415C24.8696 8.77415 17.4974 4.57726 19.507 1.76563C19.507 1.76563 18.6873 3.74447 16.9187 4.35941Z" fill="#5848BC"/>
<path d="M16.9351 4.36103C17.4474 4.34255 17.9597 4.38286 18.4653 4.46853C18.6248 4.4954 18.7844 4.52732 18.9423 4.56427C19.0666 4.59282 19.1909 4.62474 19.3135 4.65833C19.3303 4.66169 19.3488 4.66673 19.3656 4.67177C19.3857 4.67681 19.4042 4.68353 19.4244 4.68857C20.4389 4.97579 21.3913 5.43099 22.1992 5.9349C22.7098 6.25236 23.1617 6.59166 23.5363 6.92256C24.5961 7.85647 24.8229 8.77022 24.8229 8.77022C24.8128 8.03788 24.8078 7.70362 24.7524 7.22322C24.6029 5.9265 23.9495 4.88005 23.1533 4.06372C22.7048 3.60684 22.2143 3.22219 21.7423 2.90641C21.6533 2.84762 21.566 2.79051 21.4786 2.73508C21.4232 2.70149 21.3695 2.66957 21.3157 2.63766C21.2855 2.61918 21.2569 2.60071 21.2267 2.58391C21.141 2.53352 21.057 2.48481 20.9747 2.43946C20.1517 1.98426 19.5235 1.76758 19.5235 1.76758C19.5235 1.76758 19.0044 2.41762 18.2654 3.23395C17.5515 4.02509 16.9351 4.36103 16.9351 4.36103Z" fill="#9978FF"/>
<path d="M21.7422 2.90674C22.2142 3.22252 22.7047 3.60717 23.1532 4.06405C22.9046 4.54444 22.4191 5.54722 22.1991 5.93523C21.5237 5.51345 20.7467 5.12679 19.9167 4.84292L19.894 4.8352C20.3896 4.80412 21.5111 3.44827 21.7422 2.90674Z" fill="#BAA9FF"/>
<path opacity="0.6" d="M19.0654 4.59687L19.3139 4.65784L19.418 4.69143C19.4197 4.68976 19.423 4.68975 19.4247 4.68807C20.0496 4.39917 21.2337 2.78666 21.3161 2.63717C21.2858 2.61869 21.2573 2.60022 21.227 2.58342C21.1414 2.53303 21.0574 2.48432 20.9751 2.43896C20.488 3.43687 19.0654 4.59687 19.0654 4.59687Z" fill="#BAA9FF"/>
<path d="M29.9664 9.88363C28.4446 9.95216 26.6004 9.66476 24.7681 8.61462C24.7681 8.61462 28.4678 8.52375 31.013 7.2759C31.9783 6.80475 32.778 6.16478 33.146 5.30176C33.146 5.30176 33.1427 8.01715 33.5319 8.57515C33.7632 8.90756 32.2165 9.78301 29.9664 9.88363Z" fill="#5848BC"/>
<path opacity="0.9" d="M29.9663 9.8838C30.3476 9.06007 30.7233 8.1527 31.0129 7.2759C31.9782 6.80475 32.7779 6.16478 33.146 5.30176C33.146 5.30176 33.1426 8.01715 33.5318 8.57515C33.7631 8.90773 32.2164 9.78318 29.9663 9.8838Z" fill="#403B72"/>
<path d="M33.5317 8.57535C33.1107 8.29014 32.673 8.07077 32.2279 7.90549C30.265 7.1765 28.1471 7.49414 26.6715 7.90885C25.7166 8.17895 25.0684 8.52194 24.8675 8.61718C24.8282 8.63582 24.8159 8.64607 24.8159 8.64607C24.8426 8.60525 24.854 8.54697 24.8806 8.50598C25.6492 7.34078 26.5253 6.54561 27.4547 6.03112C28.8867 5.23562 30.3686 5.07017 31.4603 5.09452C32.4693 5.11787 33.1457 5.3018 33.1457 5.3018L33.5317 8.57535Z" fill="#8B72F2"/>
<path d="M18.4847 10.2359C18.5033 11.0081 21.854 10.9948 24.8492 8.73982C24.8492 8.73982 19.2584 10.6676 18.5223 7.53027C18.5223 7.53027 18.4662 9.46595 18.4847 10.2359Z" fill="#5848BC"/>
<path d="M24.8319 8.7717C24.8319 8.7717 23.8157 8.14837 22.2951 8.29803C21.665 8.35833 20.9515 8.54612 20.1928 8.95765C19.6424 9.25495 19.0686 9.66833 18.4852 10.2356L18.4214 7.59642C18.4214 7.59642 18.7347 7.38814 19.2611 7.19934C19.9855 6.93866 21.1143 6.71525 22.3865 7.12208C23.1726 7.37269 23.997 7.89692 24.8319 8.7717Z" fill="#9978FF"/>
<path d="M22.3149 7.10215L22.2329 8.30884C21.6029 8.36914 20.8893 8.55693 20.1306 8.96846L19.1987 7.21016C19.9232 6.9493 21.0427 6.69516 22.3149 7.10215Z" fill="#BAA9FF"/>
<path d="M33.5317 8.5749C33.1107 8.28969 32.673 8.07032 32.2279 7.90504L31.4604 5.09424C32.4694 5.11759 33.1459 5.30151 33.1459 5.30151L33.5317 8.5749Z" fill="#BAA9FF"/>
</svg>
