<svg xmlns="http://www.w3.org/2000/svg" viewBox="0 0 54 54" fill="none">
<path d="M9.35316 26.9388C-0.392656 32.5656 -0.39244 41.6884 9.3537 47.3151C19.0998 52.9419 34.9011 52.9419 44.6469 47.3151C54.3927 41.6883 54.3925 32.5655 44.6464 26.9388C34.9002 21.312 19.099 21.312 9.35316 26.9388Z" fill="white" fill-opacity="0.05"/>
<path d="M30.1676 48.1313C29.8082 48.1313 29.4788 48.0641 29.2152 47.9371L10.6655 38.9801C10.5068 38.9043 10.3768 38.8047 10.2916 38.693C10.1511 38.5086 10.1378 38.2571 10.2583 38.059C10.3334 37.9358 10.4589 37.8213 10.6214 37.7283L24.0183 29.9937C24.274 29.8446 24.5975 29.7651 24.9514 29.7651C25.3581 29.7651 25.7546 29.8769 26.0392 30.0717L41.4365 40.6533C41.7162 40.8437 41.8698 41.1069 41.8554 41.3738C41.8466 41.6306 41.6785 41.8722 41.3828 42.0433L31.3089 47.8599C31.0101 48.0324 30.5941 48.1313 30.1676 48.1313Z" fill="#E0E0E0" fill-opacity="0.06"/>
<path d="M25.9576 11.7501L25.5137 12.0073L24.7848 9.03508C24.5766 8.19451 23.7674 7.11624 23.0152 6.68414L22.6087 6.44848C22.4025 6.32871 22.0391 6.32871 21.8329 6.44848L20.5944 7.15912C20.4766 7.22781 20.3273 7.18655 20.2585 7.06872C20.1918 6.95284 20.231 6.80164 20.3489 6.7349L21.5873 6.02231C21.9429 5.81808 22.4987 5.81808 22.8521 6.02231L23.2606 6.25797C24.1248 6.75682 25.0223 7.94903 25.2619 8.91725L25.9576 11.7501Z" fill="#308039"/>
<path d="M11.3798 13.2164L10.5815 11.8337L20.5266 6.08911L20.5265 6.0889C20.63 6.00671 20.7865 6.00876 20.9597 6.10888C21.2716 6.28902 21.5242 6.72664 21.5242 7.08649C21.5243 7.28651 21.4479 7.42313 21.325 7.47162L11.3798 13.2164Z" fill="#27902E"/>
<path opacity="0.1" d="M10.9104 12.4034L21.2843 6.41557C21.2081 6.30941 21.118 6.21642 21.0203 6.14795L10.7285 12.0884L10.9104 12.4034Z" fill="white"/>
<path d="M10.5817 11.834C10.7917 11.7128 11.1405 11.9241 11.3609 12.3058C11.5814 12.6876 11.5899 13.0954 11.3801 13.2166C11.1701 13.3378 10.8213 13.1265 10.6008 12.7447C10.3803 12.363 10.3718 11.9552 10.5817 11.834Z" fill="#27902E"/>
<path opacity="0.3" d="M10.5817 11.834C10.7917 11.7128 11.1405 11.9241 11.3609 12.3058C11.5814 12.6876 11.5899 13.0954 11.3801 13.2166C11.1701 13.3378 10.8213 13.1265 10.6008 12.7447C10.3803 12.363 10.3718 11.9552 10.5817 11.834Z" fill="black"/>
<path d="M13.2258 19.1911L12.7819 19.4465L12.053 16.4742C11.8448 15.6335 11.0337 14.5573 10.2834 14.1252L9.87484 13.8876C9.66273 13.7659 9.54102 13.5812 9.54102 13.3809C9.54102 13.1805 9.66273 12.996 9.87484 12.8741L10.7597 12.3695C10.8245 12.3321 10.9325 12.3969 10.9993 12.5148C11.068 12.6327 11.07 12.7584 11.0052 12.7957H11.0032L10.1204 13.3005C10.0498 13.3398 10.034 13.3752 10.0321 13.381C10.034 13.3889 10.0498 13.4222 10.1204 13.4635L10.529 13.6992C11.3931 14.198 12.2888 15.3901 12.5283 16.3564L13.2258 19.1911Z" fill="#308039"/>
<path d="M26.5885 42.4063C26.5946 42.41 26.6009 42.4125 26.6084 42.415C25.9348 43.2896 24.8357 43.5401 24.5888 43.4248C24.3903 43.333 24.2724 43.096 24.4237 42.9547C24.4932 42.8902 24.6135 42.8232 24.7265 42.7288C25.0564 42.4547 25.1656 41.9771 25.1966 41.605L26.5885 42.4063Z" fill="#E0E0E0"/>
<g opacity="0.2">
<path d="M26.5885 42.4063C26.5946 42.41 26.6009 42.4125 26.6084 42.415C25.9348 43.2896 24.8357 43.5401 24.5888 43.4248C24.3903 43.333 24.2724 43.096 24.4237 42.9547C24.4932 42.8902 24.6135 42.8232 24.7265 42.7288C25.0564 42.4547 25.1656 41.9771 25.1966 41.605L26.5885 42.4063Z" fill="black"/>
</g>
<path d="M25.8956 43.7575C25.9001 43.0532 25.411 42.1935 24.8032 41.8375C24.4842 41.6506 24.1973 41.6414 23.9946 41.775L23.2471 42.1956L24.814 44.8974L25.555 44.4773L25.5541 44.4755C25.7619 44.3645 25.8932 44.1169 25.8956 43.7575Z" fill="#37474F"/>
<path d="M24.0271 42.278C24.6349 42.6341 25.1238 43.4938 25.1193 44.1981C25.1149 44.9024 24.6186 45.1848 24.0108 44.8288C23.4031 44.4727 22.9141 43.6131 22.9185 42.9087C22.923 42.2044 23.4194 41.9219 24.0271 42.278Z" fill="#455A64"/>
<path d="M23.6465 43.3353C23.6482 43.0601 23.8165 42.9346 24.0222 43.0551C24.228 43.1756 24.3933 43.4966 24.3915 43.7719C24.3896 44.0472 24.2215 44.1727 24.0159 44.0521C23.81 43.9316 23.6447 43.6106 23.6465 43.3353Z" fill="#263238"/>
<path d="M24.6765 41.3062C24.6765 41.3062 24.749 42.6064 24.1534 43.1029C24.0411 43.1966 23.92 43.2638 23.8502 43.329C23.699 43.4699 23.8178 43.7068 24.0163 43.7991C24.305 43.9335 25.7846 43.553 26.3612 42.276L24.6765 41.3062Z" fill="#F5F5F5"/>
<path d="M24.0452 43.4137C24.1078 43.4452 24.1617 43.5275 24.1657 43.5975C24.1696 43.6675 24.1221 43.6986 24.0596 43.6671C23.9971 43.6355 23.9432 43.5532 23.9392 43.4833C23.9353 43.4132 23.9827 43.3821 24.0452 43.4137Z" fill="#263238"/>
<path d="M19.0265 38.735C19.0326 38.7387 19.0447 38.7452 19.0447 38.7452C18.371 39.6198 17.2735 39.8688 17.0268 39.7535C16.8283 39.6617 16.7104 39.4247 16.8617 39.2834C16.9312 39.2189 17.0516 39.1518 17.1645 39.0575C17.4944 38.7834 17.6036 38.3058 17.6346 37.9336L19.0265 38.735Z" fill="#E0E0E0"/>
<g opacity="0.2">
<path d="M19.0265 38.735C19.0326 38.7387 19.0447 38.7452 19.0447 38.7452C18.371 39.6198 17.2735 39.8688 17.0268 39.7535C16.8283 39.6617 16.7104 39.4247 16.8617 39.2834C16.9312 39.2189 17.0516 39.1518 17.1645 39.0575C17.4944 38.7834 17.6036 38.3058 17.6346 37.9336L19.0265 38.735Z" fill="black"/>
</g>
<path d="M18.3334 40.0862C18.338 39.3818 17.8488 38.5222 17.2411 38.1661C16.9222 37.9792 16.6351 37.97 16.4326 38.1037L15.6851 38.5242L17.252 41.226L17.9931 40.8059L17.9922 40.804C18.1997 40.6932 18.3311 40.4456 18.3334 40.0862Z" fill="#37474F"/>
<path d="M16.465 38.6067C17.0727 38.9627 17.5617 39.8224 17.5572 40.5267C17.5528 41.2309 17.0565 41.5134 16.4487 41.1573C15.841 40.8012 15.3519 39.9415 15.3565 39.2372C15.3609 38.5329 15.8573 38.2506 16.465 38.6067Z" fill="#455A64"/>
<path d="M16.0845 39.6641C16.0862 39.3888 16.2544 39.2632 16.4602 39.3837C16.666 39.5042 16.8312 39.8252 16.8295 40.1005C16.8277 40.3758 16.6595 40.5013 16.4538 40.3807C16.248 40.2603 16.0827 39.9393 16.0845 39.6641Z" fill="#263238"/>
<path d="M17.1144 37.6348C17.1144 37.6348 17.1869 38.935 16.5913 39.4316C16.4791 39.5251 16.358 39.5924 16.2881 39.6576C16.137 39.7985 16.2557 40.0354 16.4542 40.1277C16.7429 40.2621 18.2225 39.8815 18.7991 38.6046L17.1144 37.6348Z" fill="#F5F5F5"/>
<path d="M16.4832 39.7424C16.5458 39.7739 16.5997 39.8562 16.6037 39.9262C16.6076 39.9961 16.5601 40.0273 16.4976 39.9956C16.4351 39.9641 16.3812 39.8818 16.3772 39.8118C16.3733 39.7418 16.4207 39.7107 16.4832 39.7424Z" fill="#263238"/>
<path d="M37.4 36.2031C36.7251 37.0752 35.6286 37.3258 35.3817 37.2104C35.1832 37.1186 35.0654 36.8817 35.2167 36.7403C35.2862 36.6758 35.4066 36.6088 35.5194 36.5145C35.8494 36.2404 35.9586 35.7627 35.9896 35.3906L37.2983 36.1436L37.3815 36.192L37.4 36.2031Z" fill="#E0E0E0"/>
<g opacity="0.2">
<path d="M37.4 36.2031C36.7251 37.0752 35.6286 37.3258 35.3817 37.2104C35.1832 37.1186 35.0654 36.8817 35.2167 36.7403C35.2862 36.6758 35.4066 36.6088 35.5194 36.5145C35.8494 36.2404 35.9586 35.7627 35.9896 35.3906L37.2983 36.1436L37.3815 36.192L37.4 36.2031Z" fill="black"/>
</g>
<path d="M36.6875 37.5436C36.6921 36.8393 36.203 35.9796 35.5952 35.6236C35.2763 35.4367 34.9892 35.4276 34.7866 35.5612L34.0391 35.9817L35.606 38.6835L36.347 38.2634L36.346 38.2616C36.5539 38.1506 36.6853 37.903 36.6875 37.5436Z" fill="#37474F"/>
<path d="M34.8191 36.0641C35.4268 36.4202 35.9158 37.2799 35.9113 37.9841C35.9069 38.6885 35.4105 38.9708 34.8028 38.6147C34.1951 38.2587 33.7061 37.3991 33.7105 36.6947C33.7151 35.9904 34.2114 35.7081 34.8191 36.0641Z" fill="#455A64"/>
<path d="M34.4385 37.121C34.4402 36.8457 34.6084 36.7202 34.8142 36.8407C35.02 36.9613 35.1853 37.2822 35.1836 37.5575C35.1819 37.8328 35.0136 37.9584 34.808 37.8378C34.6021 37.7173 34.4368 37.3964 34.4385 37.121Z" fill="#263238"/>
<path d="M35.4685 35.0918C35.4685 35.0918 35.541 36.392 34.9453 36.8886C34.8331 36.9822 34.7121 37.0494 34.6422 37.1146C34.491 37.2556 34.6098 37.4923 34.8083 37.5848C35.097 37.7191 36.5767 37.3385 37.1532 36.0616L35.4685 35.0918Z" fill="#F5F5F5"/>
<path d="M34.8373 37.1993C34.8999 37.2309 34.9538 37.3132 34.9577 37.3831C34.9616 37.453 34.9141 37.4842 34.8516 37.4526C34.7891 37.4211 34.7352 37.3388 34.7312 37.2689C34.7273 37.1989 34.7748 37.1678 34.8373 37.1993Z" fill="#263238"/>
<path d="M30.8873 31.8884C30.8935 31.8921 30.9056 31.8985 30.9056 31.8985C30.232 32.7731 29.1345 33.0222 28.8876 32.9068C28.6891 32.815 28.5713 32.5781 28.7226 32.4367C28.7921 32.3722 28.9124 32.3052 29.0253 32.2109C29.3552 31.9368 29.4644 31.4591 29.4954 31.0869L30.8873 31.8884Z" fill="#E0E0E0"/>
<g opacity="0.2">
<path d="M30.8873 31.8884C30.8935 31.8921 30.9056 31.8985 30.9056 31.8985C30.232 32.7731 29.1345 33.0222 28.8876 32.9068C28.6891 32.815 28.5713 32.5781 28.7226 32.4367C28.7921 32.3722 28.9124 32.3052 29.0253 32.2109C29.3552 31.9368 29.4644 31.4591 29.4954 31.0869L30.8873 31.8884Z" fill="black"/>
</g>
<path d="M30.1944 33.2394C30.1989 32.5352 29.7099 31.6755 29.1021 31.3194C28.783 31.1325 28.4961 31.1234 28.2935 31.257L27.5459 31.6776L29.1129 34.3794L29.8539 33.9593L29.8529 33.9573C30.0607 33.8465 30.1921 33.5989 30.1944 33.2394Z" fill="#37474F"/>
<path d="M28.3259 31.76C28.9336 32.1161 29.4227 32.9757 29.4181 33.68C29.4137 34.3844 28.9173 34.6667 28.3096 34.3106C27.7019 33.9545 27.2129 33.0949 27.2173 32.3905C27.2219 31.6862 27.7182 31.4039 28.3259 31.76Z" fill="#455A64"/>
<path d="M27.9453 32.8173C27.9471 32.542 28.1153 32.4165 28.3211 32.537C28.5268 32.6576 28.6921 32.9785 28.6903 33.2538C28.6886 33.5291 28.5203 33.6546 28.3147 33.5341C28.1088 33.4136 27.9435 33.0926 27.9453 32.8173Z" fill="#263238"/>
<path d="M28.9754 30.7881C28.9754 30.7881 29.0479 32.0883 28.4522 32.5849C28.34 32.6784 28.2189 32.7457 28.149 32.8109C27.9978 32.9519 28.1166 33.1886 28.3151 33.2811C28.6038 33.4154 30.0834 33.0348 30.66 31.7579L28.9754 30.7881Z" fill="#F5F5F5"/>
<path d="M28.3441 32.8956C28.4066 32.9272 28.4605 33.0095 28.4645 33.0794C28.4685 33.1494 28.421 33.1805 28.3584 33.1489C28.2959 33.1173 28.242 33.035 28.238 32.9651C28.234 32.8952 28.2814 32.8641 28.3441 32.8956Z" fill="#263238"/>
<path d="M30.3893 44.0533C29.9098 44.0533 29.4358 43.9629 29.0549 43.7789L15.8325 37.394C14.4827 36.7423 13.5722 35.409 13.4566 33.9144L12.1348 16.8413L12.7323 16.7951L14.0541 33.8682C14.1535 35.1508 14.9348 36.2949 16.0932 36.8544L29.3156 43.2392C29.9693 43.555 31.0532 43.5149 31.6823 43.152L39.0244 38.9126C39.2772 38.7666 39.4209 38.5781 39.4285 38.3819C39.4361 38.1857 39.3079 37.9865 39.0672 37.8212L27.9266 30.1648C26.869 29.438 26.2057 28.2873 26.1065 27.0079L24.7593 9.60726L25.3569 9.56104L26.704 26.9617C26.789 28.0596 27.3583 29.0472 28.266 29.6709L39.4065 37.3272C39.8168 37.6092 40.043 38.0021 40.0272 38.4055C40.0113 38.8086 39.755 39.1827 39.3239 39.4316L31.9818 43.6709C31.5436 43.9239 30.9625 44.0533 30.3893 44.0533Z" fill="#455A64"/>
<path d="M40.1702 32.0058L26.507 22.6159C26.3392 22.501 26.0834 22.4312 25.8237 22.4312C25.6019 22.4312 25.3961 22.4791 25.2453 22.567L13.3553 29.4316C13.2664 29.4826 13.2255 29.5285 13.2114 29.5515C13.2274 29.5724 13.2714 29.6154 13.3633 29.6594L29.8244 37.6077C29.9883 37.6867 30.211 37.7306 30.4528 37.7306C30.7414 37.7306 31.0271 37.6657 31.2159 37.5569L40.1552 32.3954C40.257 32.3365 40.324 32.2626 40.326 32.2067C40.329 32.1506 40.2672 32.0718 40.1702 32.0058ZM35.7151 34.2494L34.0688 35.2003C33.83 35.3381 33.4405 35.3421 33.1988 35.2103L29.0343 32.9267C29.0113 32.9137 28.9903 32.9007 28.9713 32.8858C28.9883 32.8717 29.0083 32.8588 29.0292 32.8468L30.8912 31.771C31.1299 31.6332 31.5156 31.6361 31.7523 31.778L35.7191 34.1535C35.744 34.1685 35.766 34.1834 35.7849 34.2005C35.765 34.2184 35.741 34.2344 35.7151 34.2494ZM32.5755 36.0624L30.9262 37.0143C30.6874 37.1521 30.2939 37.1652 30.0461 37.0432L25.6419 34.8725C25.6209 34.8626 25.6019 34.8506 25.584 34.8385C25.597 34.8286 25.612 34.8195 25.627 34.8105L27.482 33.7397C27.7207 33.6019 28.1113 33.5959 28.3551 33.7257L32.5685 35.9862C32.5915 35.9982 32.6115 36.0112 32.6304 36.0252C32.6134 36.0384 32.5955 36.0504 32.5755 36.0624ZM15.0265 29.5855L17.297 28.2749C17.5357 28.136 17.9263 28.1301 18.17 28.2609L21.7461 30.1798C21.7691 30.1918 21.7891 30.2048 21.8081 30.2188C21.7912 30.2318 21.7731 30.2438 21.7531 30.2558L19.6644 31.4624C19.4256 31.6002 19.0311 31.6133 18.7834 31.4914L15.0425 29.6464C15.0215 29.6365 15.0015 29.6245 14.9835 29.6125C14.9966 29.6034 15.0116 29.5945 15.0265 29.5855ZM18.9492 27.3209L21.2438 25.9963C21.4825 25.8585 21.8682 25.8614 22.1049 26.0034L25.4692 28.0171C25.4942 28.0321 25.5162 28.047 25.5352 28.0651C25.5152 28.083 25.4912 28.099 25.4652 28.114L23.3595 29.3287C23.1207 29.4665 22.7302 29.4716 22.4885 29.3386L18.9543 27.4007C18.9313 27.3877 18.9104 27.3747 18.8915 27.3597C18.9083 27.3459 18.9283 27.3329 18.9492 27.3209ZM30.288 31.001L28.399 32.0918C28.1602 32.2296 27.7707 32.2346 27.529 32.1017L23.9948 30.1638C23.9718 30.1509 23.9508 30.1378 23.9318 30.1229C23.9488 30.109 23.9678 30.0959 23.9887 30.0839L26.0674 28.8843C26.3062 28.7465 26.6918 28.7494 26.9285 28.8902L30.2918 30.904C30.3168 30.919 30.3388 30.9339 30.3577 30.9519C30.3378 30.97 30.3139 30.9859 30.288 31.001ZM33.7402 29.008L31.8433 30.1038C31.6045 30.2416 31.2199 30.2366 30.9842 30.0928L27.6639 28.059C27.6389 28.044 27.6159 28.0271 27.5969 28.0101C27.6179 27.9911 27.6428 27.9741 27.6708 27.9582L29.7645 26.7495C30.0033 26.6117 30.3828 26.6247 30.6115 26.7775L33.7581 28.8892C33.7841 28.9062 33.8061 28.9252 33.826 28.9452C33.8022 28.9682 33.7732 28.9891 33.7402 29.008ZM29.1962 25.9584L27.0745 27.1841C26.8357 27.3219 26.4511 27.317 26.2154 27.1731L22.895 25.1403C22.8691 25.1243 22.8471 25.1084 22.8271 25.0914C22.849 25.0724 22.8741 25.0545 22.9021 25.0385L25.2216 23.6999C25.4604 23.5621 25.8399 23.5751 26.0686 23.7289L29.2142 25.8406C29.2401 25.8576 29.2622 25.8756 29.2821 25.8956C29.2581 25.9185 29.2291 25.9394 29.1962 25.9584ZM20.3268 32.1986L22.3906 31.0069C22.6292 30.8691 23.0199 30.863 23.2626 30.9929L26.8396 32.9118C26.8626 32.9238 26.8826 32.9367 26.9016 32.9518C26.8847 32.9647 26.8666 32.9767 26.8466 32.9877L24.9627 34.0755C24.7239 34.2133 24.3294 34.2264 24.0816 34.1044L20.3417 32.2596C20.3207 32.2497 20.3017 32.2386 20.2838 32.2257C20.2968 32.2166 20.3118 32.2076 20.3268 32.1986ZM32.3647 30.93C32.3856 30.911 32.4106 30.894 32.4386 30.878L34.3075 29.7992C34.5473 29.6614 34.9258 29.6734 35.1556 29.8272L38.8696 32.3205C38.8957 32.3375 38.9176 32.3565 38.9376 32.3764C38.9136 32.3994 38.8846 32.4204 38.8516 32.4394L37.2074 33.3884C36.9686 33.5262 36.5851 33.5212 36.3493 33.3774L32.4326 30.979C32.4067 30.9629 32.3847 30.947 32.3647 30.93Z" fill="#27902E"/>
<g opacity="0.7">
<path d="M40.1702 32.0058L26.507 22.6159C26.3392 22.501 26.0834 22.4312 25.8237 22.4312C25.6019 22.4312 25.3961 22.4791 25.2453 22.567L13.3553 29.4316C13.2664 29.4826 13.2255 29.5285 13.2114 29.5515C13.2274 29.5724 13.2714 29.6154 13.3633 29.6594L29.8244 37.6077C29.9883 37.6867 30.211 37.7306 30.4528 37.7306C30.7414 37.7306 31.0271 37.6657 31.2159 37.5569L40.1552 32.3954C40.257 32.3365 40.324 32.2626 40.326 32.2067C40.329 32.1506 40.2672 32.0718 40.1702 32.0058ZM35.7151 34.2494L34.0688 35.2003C33.83 35.3381 33.4405 35.3421 33.1988 35.2103L29.0343 32.9267C29.0113 32.9137 28.9903 32.9007 28.9713 32.8858C28.9883 32.8717 29.0083 32.8588 29.0292 32.8468L30.8912 31.771C31.1299 31.6332 31.5156 31.6361 31.7523 31.778L35.7191 34.1535C35.744 34.1685 35.766 34.1834 35.7849 34.2005C35.765 34.2184 35.741 34.2344 35.7151 34.2494ZM32.5755 36.0624L30.9262 37.0143C30.6874 37.1521 30.2939 37.1652 30.0461 37.0432L25.6419 34.8725C25.6209 34.8626 25.6019 34.8506 25.584 34.8385C25.597 34.8286 25.612 34.8195 25.627 34.8105L27.482 33.7397C27.7207 33.6019 28.1113 33.5959 28.3551 33.7257L32.5685 35.9862C32.5915 35.9982 32.6115 36.0112 32.6304 36.0252C32.6134 36.0384 32.5955 36.0504 32.5755 36.0624ZM15.0265 29.5855L17.297 28.2749C17.5357 28.136 17.9263 28.1301 18.17 28.2609L21.7461 30.1798C21.7691 30.1918 21.7891 30.2048 21.8081 30.2188C21.7912 30.2318 21.7731 30.2438 21.7531 30.2558L19.6644 31.4624C19.4256 31.6002 19.0311 31.6133 18.7834 31.4914L15.0425 29.6464C15.0215 29.6365 15.0015 29.6245 14.9835 29.6125C14.9966 29.6034 15.0116 29.5945 15.0265 29.5855ZM18.9492 27.3209L21.2438 25.9963C21.4825 25.8585 21.8682 25.8614 22.1049 26.0034L25.4692 28.0171C25.4942 28.0321 25.5162 28.047 25.5352 28.0651C25.5152 28.083 25.4912 28.099 25.4652 28.114L23.3595 29.3287C23.1207 29.4665 22.7302 29.4716 22.4885 29.3386L18.9543 27.4007C18.9313 27.3877 18.9104 27.3747 18.8915 27.3597C18.9083 27.3459 18.9283 27.3329 18.9492 27.3209ZM30.288 31.001L28.399 32.0918C28.1602 32.2296 27.7707 32.2346 27.529 32.1017L23.9948 30.1638C23.9718 30.1509 23.9508 30.1378 23.9318 30.1229C23.9488 30.109 23.9678 30.0959 23.9887 30.0839L26.0674 28.8843C26.3062 28.7465 26.6918 28.7494 26.9285 28.8902L30.2918 30.904C30.3168 30.919 30.3388 30.9339 30.3577 30.9519C30.3378 30.97 30.3139 30.9859 30.288 31.001ZM33.7402 29.008L31.8433 30.1038C31.6045 30.2416 31.2199 30.2366 30.9842 30.0928L27.6639 28.059C27.6389 28.044 27.6159 28.0271 27.5969 28.0101C27.6179 27.9911 27.6428 27.9741 27.6708 27.9582L29.7645 26.7495C30.0033 26.6117 30.3828 26.6247 30.6115 26.7775L33.7581 28.8892C33.7841 28.9062 33.8061 28.9252 33.826 28.9452C33.8022 28.9682 33.7732 28.9891 33.7402 29.008ZM29.1962 25.9584L27.0745 27.1841C26.8357 27.3219 26.4511 27.317 26.2154 27.1731L22.895 25.1403C22.8691 25.1243 22.8471 25.1084 22.8271 25.0914C22.849 25.0724 22.8741 25.0545 22.9021 25.0385L25.2216 23.6999C25.4604 23.5621 25.8399 23.5751 26.0686 23.7289L29.2142 25.8406C29.2401 25.8576 29.2622 25.8756 29.2821 25.8956C29.2581 25.9185 29.2291 25.9394 29.1962 25.9584ZM20.3268 32.1986L22.3906 31.0069C22.6292 30.8691 23.0199 30.863 23.2626 30.9929L26.8396 32.9118C26.8626 32.9238 26.8826 32.9367 26.9016 32.9518C26.8847 32.9647 26.8666 32.9767 26.8466 32.9877L24.9627 34.0755C24.7239 34.2133 24.3294 34.2264 24.0816 34.1044L20.3417 32.2596C20.3207 32.2497 20.3017 32.2386 20.2838 32.2257C20.2968 32.2166 20.3118 32.2076 20.3268 32.1986ZM32.3647 30.93C32.3856 30.911 32.4106 30.894 32.4386 30.878L34.3075 29.7992C34.5473 29.6614 34.9258 29.6734 35.1556 29.8272L38.8696 32.3205C38.8957 32.3375 38.9176 32.3565 38.9376 32.3764C38.9136 32.3994 38.8846 32.4204 38.8516 32.4394L37.2074 33.3884C36.9686 33.5262 36.5851 33.5212 36.3493 33.3774L32.4326 30.979C32.4067 30.9629 32.3847 30.947 32.3647 30.93Z" fill="white"/>
</g>
<path d="M26.8399 32.5023L23.2629 30.5833C23.0201 30.4534 22.6296 30.4595 22.3909 30.5973L20.3271 31.7889C20.1083 31.9148 20.0963 32.1016 20.2841 32.2255C20.2971 32.2165 20.3121 32.2074 20.3271 32.1985L22.3909 31.0068C22.6296 30.869 23.0202 30.8629 23.2629 30.9928L26.8399 32.9117C26.8629 32.9237 26.8829 32.9367 26.9019 32.9517C27.0847 32.814 27.0626 32.6212 26.8399 32.5023ZM38.8698 31.911L35.1558 29.4177C34.9261 29.2649 34.5475 29.2519 34.3077 29.3897L32.4388 30.4685C32.226 30.5914 32.2001 30.7862 32.3649 30.93C32.3858 30.911 32.4108 30.894 32.4388 30.8781L34.3077 29.7993C34.5475 29.6614 34.926 29.6734 35.1558 29.8272L38.8698 32.3205C38.8959 32.3375 38.9178 32.3565 38.9378 32.3765C39.0886 32.2376 39.0666 32.0438 38.8698 31.911ZM21.7464 29.7703L18.1703 27.8514C17.9266 27.7205 17.5361 27.7275 17.2973 27.8653L15.0268 29.1759C14.8091 29.3017 14.7961 29.4885 14.9838 29.6124C14.9968 29.6034 15.0118 29.5944 15.0268 29.5854L17.2973 28.2748C17.5361 28.1359 17.9266 28.13 18.1703 28.2608L21.7464 30.1797C21.7694 30.1917 21.7894 30.2047 21.8084 30.2187C21.9902 30.0819 21.9691 29.8891 21.7464 29.7703ZM32.5687 35.5769L28.3553 33.3174C28.1115 33.1865 27.721 33.1925 27.4822 33.3303L25.6272 34.4011C25.4084 34.528 25.3954 34.7148 25.5842 34.8386C25.5972 34.8287 25.6122 34.8196 25.6272 34.8107L27.4822 33.7398C27.7209 33.602 28.1115 33.596 28.3553 33.7258L32.5687 35.9864C32.5917 35.9983 32.6117 36.0113 32.6306 36.0253C32.8124 35.8886 32.7915 35.6958 32.5687 35.5769ZM35.7193 33.744L31.7525 31.3685C31.5158 31.2277 31.1302 31.2237 30.8915 31.3626L29.0294 32.4374C28.8136 32.5622 28.7946 32.754 28.9715 32.8859C28.9885 32.8719 29.0085 32.8589 29.0294 32.8469L30.8915 31.7711C31.1301 31.6333 31.5158 31.6362 31.7525 31.7781L35.7193 34.1536C35.7442 34.1686 35.7662 34.1835 35.7851 34.2006C35.952 34.0627 35.9301 33.8688 35.7193 33.744ZM25.4694 27.6076L22.1051 25.5938C21.8684 25.452 21.4828 25.449 21.244 25.5868L18.9495 26.9113C18.7337 27.0362 18.7147 27.227 18.8916 27.3599C18.9085 27.3458 18.9285 27.3329 18.9495 27.3209L21.244 25.9964C21.4827 25.8585 21.8684 25.8615 22.1051 26.0034L25.4694 28.0171C25.4944 28.0322 25.5164 28.0471 25.5354 28.0651C25.7022 27.9273 25.6801 27.7334 25.4694 27.6076ZM29.2143 25.431L26.0687 23.3193C25.84 23.1655 25.4603 23.1524 25.2217 23.2903L22.9022 24.6298C22.6884 24.7527 22.6624 24.9475 22.8272 25.0913C22.8491 25.0723 22.8742 25.0544 22.9022 25.0384L25.2217 23.6998C25.4605 23.562 25.84 23.575 26.0687 23.7288L29.2143 25.8405C29.2402 25.8575 29.2623 25.8755 29.2823 25.8955C29.4341 25.7566 29.4121 25.5628 29.2143 25.431ZM30.2922 30.4944L26.9288 28.4817C26.6921 28.3398 26.3065 28.3368 26.0677 28.4746L23.9891 29.6743C23.7733 29.7991 23.7554 29.991 23.9321 30.1228C23.9491 30.1089 23.9681 30.0958 23.9891 30.0838L26.0677 28.8842C26.3065 28.7464 26.6921 28.7493 26.9288 28.8901L30.2922 30.9039C30.3171 30.9189 30.3391 30.9338 30.358 30.9518C30.5249 30.8151 30.503 30.6213 30.2922 30.4944ZM33.7584 28.4807L30.6118 26.369C30.3831 26.2152 30.0035 26.2021 29.7648 26.34L27.6711 27.5487C27.4574 27.6717 27.4313 27.8675 27.5972 28.0102C27.6182 27.9912 27.6431 27.9743 27.6711 27.9583L29.7648 26.7497C30.0036 26.6118 30.3831 26.6248 30.6118 26.7776L33.7584 28.8894C33.7844 28.9063 33.8064 28.9253 33.8263 28.9453C33.9771 28.8063 33.9552 28.6125 33.7584 28.4807Z" fill="#27902E"/>
<path opacity="0.3" d="M21.8079 30.2187C21.9897 30.0819 21.9688 29.8891 21.746 29.7702L18.1699 27.8513C17.9261 27.7204 17.5356 27.7274 17.2968 27.8652L15.0263 29.1758C14.8086 29.3016 14.7956 29.4884 14.9833 29.6123C14.9963 29.6033 15.0113 29.5943 15.0263 29.5853L17.2968 28.2747C17.5356 28.1358 17.9261 28.1299 18.1699 28.2607L21.746 30.1796C21.7691 30.1918 21.789 30.2048 21.8079 30.2187ZM18.8912 27.3599C18.9081 27.3458 18.9281 27.3329 18.9491 27.3209L21.2436 25.9964C21.4823 25.8585 21.868 25.8615 22.1047 26.0034L25.469 28.0171C25.494 28.0322 25.516 28.0471 25.535 28.0651C25.7018 27.9273 25.6799 27.7334 25.469 27.6076L22.1047 25.5938C21.868 25.452 21.4824 25.449 21.2436 25.5868L18.9491 26.9113C18.7333 27.0362 18.7143 27.227 18.8912 27.3599ZM27.5966 28.0101C27.6176 27.9911 27.6426 27.9742 27.6706 27.9582L29.7643 26.7494C30.0031 26.6116 30.3826 26.6246 30.6115 26.7774L33.758 28.8891C33.784 28.9061 33.806 28.9251 33.826 28.9451C33.9767 28.8062 33.9548 28.6124 33.758 28.4806L30.6115 26.3688C30.3827 26.2151 30.0031 26.202 29.7643 26.3399L27.6706 27.5486C27.4569 27.6715 27.4309 27.8673 27.5966 28.0101ZM26.9284 28.4817C26.6917 28.3398 26.3061 28.3368 26.0674 28.4746L23.9887 29.6743C23.7729 29.7991 23.755 29.991 23.9318 30.1228C23.9487 30.1089 23.9677 30.0958 23.9887 30.0838L26.0674 28.8842C26.3061 28.7464 26.6917 28.7493 26.9284 28.8901L30.2918 30.9039C30.3167 30.9189 30.3388 30.9338 30.3577 30.9518C30.5245 30.815 30.5025 30.6212 30.2918 30.4943L26.9284 28.4817ZM22.9018 25.0384L25.2213 23.6998C25.4601 23.562 25.8396 23.575 26.0683 23.7288L29.2139 25.8405C29.2399 25.8575 29.2619 25.8755 29.2819 25.8955C29.4337 25.7566 29.4117 25.5628 29.2139 25.431L26.0683 23.3193C25.8396 23.1655 25.46 23.1524 25.2213 23.2903L22.9018 24.6298C22.688 24.7527 22.662 24.9475 22.8268 25.0913C22.8489 25.0724 22.8738 25.0544 22.9018 25.0384ZM35.7189 33.744L31.7522 31.3685C31.5154 31.2277 31.1299 31.2237 30.8911 31.3624L29.0292 32.4373C28.8134 32.5621 28.7944 32.7539 28.9712 32.8858C28.9881 32.8717 29.0081 32.8588 29.0292 32.8468L30.8911 31.771C31.1299 31.6332 31.5154 31.6361 31.7522 31.778L35.7189 34.1535C35.7438 34.1685 35.7659 34.1834 35.7848 34.2005C35.9516 34.0626 35.9296 33.8688 35.7189 33.744ZM26.9014 32.9518C27.0842 32.814 27.0623 32.6211 26.8395 32.5023L23.2624 30.5833C23.0196 30.4534 22.6291 30.4595 22.3904 30.5973L20.3266 31.7889C20.1078 31.9148 20.0958 32.1016 20.2836 32.2255C20.2966 32.2165 20.3116 32.2074 20.3266 32.1985L22.3904 31.0068C22.6291 30.869 23.0197 30.8629 23.2624 30.9928L26.8395 32.9117C26.8626 32.9238 26.8824 32.9369 26.9014 32.9518ZM38.8695 31.911L35.1555 29.4177C34.9257 29.2649 34.5471 29.2519 34.3073 29.3897L32.4384 30.4685C32.2256 30.5914 32.1997 30.7862 32.3645 30.93C32.3855 30.911 32.4104 30.894 32.4384 30.8781L34.3073 29.7993C34.5471 29.6614 34.9256 29.6734 35.1555 29.8272L38.8695 32.3205C38.8955 32.3375 38.9174 32.3565 38.9374 32.3765C39.0883 32.2376 39.0662 32.0438 38.8695 31.911ZM32.5683 35.5769L28.3549 33.3174C28.1112 33.1865 27.7205 33.1925 27.4818 33.3303L25.6268 34.4011C25.408 34.528 25.3951 34.7148 25.5838 34.8386C25.5968 34.8287 25.6118 34.8196 25.6268 34.8107L27.4818 33.7398C27.7205 33.602 28.1112 33.596 28.3549 33.7259L32.5683 35.9865C32.5913 35.9985 32.6113 36.0114 32.6302 36.0255C32.8121 35.8886 32.7911 35.6958 32.5683 35.5769Z" fill="white"/>
<path d="M25.9328 22.2265L25.9248 22.0347L25.3884 9.45633C25.3324 9.44931 25.2755 9.44531 25.2186 9.44531C25.0188 9.44531 24.831 9.48927 24.6911 9.57016L12.3765 16.6804C12.2517 16.7514 12.2217 16.8143 12.2207 16.8253L13.1617 29.083L13.2116 29.5515C13.2256 29.5285 13.2666 29.4826 13.3555 29.4316L25.2455 22.567C25.3964 22.4791 25.6021 22.4311 25.8238 22.4311C25.8638 22.4311 25.9028 22.4332 25.9417 22.4361L25.9328 22.2265ZM24.1558 17.8112L21.7993 19.1728C21.7594 19.1958 21.7204 19.2118 21.6834 19.2207C21.6764 19.1918 21.6715 19.1588 21.6694 19.1238L21.5476 16.8932C21.5337 16.6175 21.7144 16.2829 21.9531 16.145L24.3385 14.7674C24.3775 14.7454 24.4144 14.7294 24.4504 14.7205C24.4584 14.7494 24.4624 14.7814 24.4643 14.8164L24.5662 17.0629C24.5784 17.3387 24.3945 17.6734 24.1558 17.8112ZM24.2827 10.7599L24.3836 13.0064C24.3955 13.2821 24.2117 13.6178 23.973 13.7556L21.5806 15.1371C21.5407 15.1601 21.5017 15.1761 21.4647 15.1851C21.4577 15.1561 21.4528 15.1231 21.4507 15.0882L21.3289 12.8577C21.315 12.5829 21.4956 12.2474 21.7344 12.1095L24.1568 10.711C24.1947 10.689 24.2327 10.6729 24.2686 10.664C24.2766 10.6929 24.2806 10.7249 24.2827 10.7599ZM17.8906 18.4904L20.276 17.1129C20.316 17.0899 20.3559 17.0739 20.3928 17.0649C20.4008 17.0939 20.4058 17.1269 20.4079 17.1618L20.5327 19.3884C20.5487 19.6642 20.3679 19.9987 20.1281 20.1367L17.7697 21.4982C17.7288 21.5222 17.6879 21.5382 17.6499 21.5471C17.6419 21.5182 17.6359 21.4853 17.6339 21.4503L17.491 19.2386C17.4731 18.9629 17.6518 18.6283 17.8906 18.4904ZM20.1801 13.1312L20.3059 15.3578C20.3209 15.6335 20.1401 15.9692 19.9013 16.107L17.5099 17.4874C17.469 17.5114 17.429 17.5274 17.39 17.5354C17.382 17.5064 17.376 17.4745 17.374 17.4395L17.2302 15.2269C17.2122 14.9521 17.391 14.6166 17.6307 14.4787L20.0481 13.0832C20.0881 13.0602 20.128 13.0442 20.165 13.0352C20.1731 13.0644 20.1781 13.0964 20.1801 13.1312ZM13.829 20.836L16.2135 19.4584C16.2544 19.4344 16.2953 19.4185 16.3343 19.4095C16.3423 19.4394 16.3482 19.4714 16.3503 19.5075L16.4982 21.7151C16.5162 21.9908 16.3373 22.3254 16.0986 22.4633L13.7381 23.8268C13.6962 23.8508 13.6552 23.8677 13.6152 23.8757C13.6062 23.8458 13.6012 23.8137 13.5982 23.7789L13.4334 21.5832C13.4125 21.3085 13.5903 20.9738 13.829 20.836ZM16.0816 15.5007L16.2294 17.7093C16.2485 17.984 16.0696 18.3186 15.8308 18.4575L13.4395 19.837C13.3976 19.8609 13.3556 19.8779 13.3166 19.8859C13.3076 19.8569 13.3026 19.824 13.2996 19.789L13.1348 17.5943C13.1139 17.3196 13.2916 16.985 13.5304 16.8461L15.9449 15.4526C15.9868 15.4286 16.0267 15.4117 16.0657 15.4026C16.0736 15.4328 16.0795 15.4648 16.0816 15.5007ZM13.8959 27.7674L13.7321 25.5728C13.7111 25.2971 13.8889 24.9625 14.1277 24.8246L16.4821 23.4651C16.523 23.4411 16.563 23.4252 16.6019 23.4172C16.6099 23.4461 16.616 23.4781 16.6179 23.5131L16.7658 25.7217C16.7848 25.9974 16.6059 26.332 16.3673 26.4699L14.0367 27.8155C13.9937 27.8394 13.9528 27.8564 13.9128 27.8644C13.9039 27.8344 13.8989 27.8024 13.8959 27.7674ZM17.8946 25.4619L17.7507 23.2493C17.7328 22.9746 17.9126 22.639 18.1513 22.5011L20.5038 21.1435C20.5437 21.1205 20.5827 21.1046 20.6196 21.0966C20.6276 21.1255 20.6326 21.1575 20.6347 21.1915L20.7605 23.4191C20.7755 23.6939 20.5947 24.0294 20.3559 24.1673L18.0305 25.5099C17.9895 25.5339 17.9496 25.5498 17.9106 25.5588C17.9026 25.5288 17.8965 25.4968 17.8946 25.4619ZM21.8882 23.1594L21.7664 20.9278C21.7524 20.653 21.9333 20.3175 22.1719 20.1795L24.5214 18.823C24.5594 18.801 24.5973 18.7849 24.6333 18.776C24.6412 18.8049 24.6452 18.8369 24.6472 18.8719L24.749 21.1185C24.761 21.3942 24.5772 21.7299 24.3385 21.8677L22.018 23.2072C21.9781 23.2302 21.9391 23.2462 21.9021 23.2542C21.8943 23.2254 21.8903 23.1934 21.8882 23.1594Z" fill="#27902E"/>
<path opacity="0.3" d="M25.9328 22.2265L25.9248 22.0347L25.3884 9.45633C25.3324 9.44931 25.2755 9.44531 25.2186 9.44531C25.0188 9.44531 24.831 9.48927 24.6911 9.57016L12.3765 16.6804C12.2517 16.7514 12.2217 16.8143 12.2207 16.8253L13.1617 29.083L13.2116 29.5515C13.2256 29.5285 13.2666 29.4826 13.3555 29.4316L25.2455 22.567C25.3964 22.4791 25.6021 22.4311 25.8238 22.4311C25.8638 22.4311 25.9028 22.4332 25.9417 22.4361L25.9328 22.2265ZM24.1558 17.8112L21.7993 19.1728C21.7594 19.1958 21.7204 19.2118 21.6834 19.2207C21.6764 19.1918 21.6715 19.1588 21.6694 19.1238L21.5476 16.8932C21.5337 16.6175 21.7144 16.2829 21.9531 16.145L24.3385 14.7674C24.3775 14.7454 24.4144 14.7294 24.4504 14.7205C24.4584 14.7494 24.4624 14.7814 24.4643 14.8164L24.5662 17.0629C24.5784 17.3387 24.3945 17.6734 24.1558 17.8112ZM24.2827 10.7599L24.3836 13.0064C24.3955 13.2821 24.2117 13.6178 23.973 13.7556L21.5806 15.1371C21.5407 15.1601 21.5017 15.1761 21.4647 15.1851C21.4577 15.1561 21.4528 15.1231 21.4507 15.0882L21.3289 12.8577C21.315 12.5829 21.4956 12.2474 21.7344 12.1095L24.1568 10.711C24.1947 10.689 24.2327 10.6729 24.2686 10.664C24.2766 10.6929 24.2806 10.7249 24.2827 10.7599ZM17.8906 18.4904L20.276 17.1129C20.316 17.0899 20.3559 17.0739 20.3928 17.0649C20.4008 17.0939 20.4058 17.1269 20.4079 17.1618L20.5327 19.3884C20.5487 19.6642 20.3679 19.9987 20.1281 20.1367L17.7697 21.4982C17.7288 21.5222 17.6879 21.5382 17.6499 21.5471C17.6419 21.5182 17.6359 21.4853 17.6339 21.4503L17.491 19.2386C17.4731 18.9629 17.6518 18.6283 17.8906 18.4904ZM20.1801 13.1312L20.3059 15.3578C20.3209 15.6335 20.1401 15.9692 19.9013 16.107L17.5099 17.4874C17.469 17.5114 17.429 17.5274 17.39 17.5354C17.382 17.5064 17.376 17.4745 17.374 17.4395L17.2302 15.2269C17.2122 14.9521 17.391 14.6166 17.6307 14.4787L20.0481 13.0832C20.0881 13.0602 20.128 13.0442 20.165 13.0352C20.1731 13.0644 20.1781 13.0964 20.1801 13.1312ZM13.829 20.836L16.2135 19.4584C16.2544 19.4344 16.2953 19.4185 16.3343 19.4095C16.3423 19.4394 16.3482 19.4714 16.3503 19.5075L16.4982 21.7151C16.5162 21.9908 16.3373 22.3254 16.0986 22.4633L13.7381 23.8268C13.6962 23.8508 13.6552 23.8677 13.6152 23.8757C13.6062 23.8458 13.6012 23.8137 13.5982 23.7789L13.4334 21.5832C13.4125 21.3085 13.5903 20.9738 13.829 20.836ZM16.0816 15.5007L16.2294 17.7093C16.2485 17.984 16.0696 18.3186 15.8308 18.4575L13.4395 19.837C13.3976 19.8609 13.3556 19.8779 13.3166 19.8859C13.3076 19.8569 13.3026 19.824 13.2996 19.789L13.1348 17.5943C13.1139 17.3196 13.2916 16.985 13.5304 16.8461L15.9449 15.4526C15.9868 15.4286 16.0267 15.4117 16.0657 15.4026C16.0736 15.4328 16.0795 15.4648 16.0816 15.5007ZM13.8959 27.7674L13.7321 25.5728C13.7111 25.2971 13.8889 24.9625 14.1277 24.8246L16.4821 23.4651C16.523 23.4411 16.563 23.4252 16.6019 23.4172C16.6099 23.4461 16.616 23.4781 16.6179 23.5131L16.7658 25.7217C16.7848 25.9974 16.6059 26.332 16.3673 26.4699L14.0367 27.8155C13.9937 27.8394 13.9528 27.8564 13.9128 27.8644C13.9039 27.8344 13.8989 27.8024 13.8959 27.7674ZM17.8946 25.4619L17.7507 23.2493C17.7328 22.9746 17.9126 22.639 18.1513 22.5011L20.5038 21.1435C20.5437 21.1205 20.5827 21.1046 20.6196 21.0966C20.6276 21.1255 20.6326 21.1575 20.6347 21.1915L20.7605 23.4191C20.7755 23.6939 20.5947 24.0294 20.3559 24.1673L18.0305 25.5099C17.9895 25.5339 17.9496 25.5498 17.9106 25.5588C17.9026 25.5288 17.8965 25.4968 17.8946 25.4619ZM21.8882 23.1594L21.7664 20.9278C21.7524 20.653 21.9333 20.3175 22.1719 20.1795L24.5214 18.823C24.5594 18.801 24.5973 18.7849 24.6333 18.776C24.6412 18.8049 24.6452 18.8369 24.6472 18.8719L24.749 21.1185C24.761 21.3942 24.5772 21.7299 24.3385 21.8677L22.018 23.2072C21.9781 23.2302 21.9391 23.2462 21.9021 23.2542C21.8943 23.2254 21.8903 23.1934 21.8882 23.1594Z" fill="white"/>
<path d="M20.9641 21.3924C20.9511 21.1627 20.8052 21.0478 20.6195 21.0967C20.6275 21.1257 20.6324 21.1576 20.6345 21.1917L20.7603 23.4193C20.7753 23.694 20.5945 24.0296 20.3557 24.1675L18.0303 25.51C17.9893 25.534 17.9494 25.55 17.9104 25.559C17.9663 25.7607 18.1511 25.8307 18.3599 25.7108L20.6854 24.3683C20.924 24.2294 21.1049 23.8948 21.0889 23.6191L20.9641 21.3924ZM24.7939 15.0164C24.784 14.7847 24.639 14.6698 24.4502 14.7207C24.4582 14.7497 24.4622 14.7817 24.4642 14.8166L24.566 17.0632C24.578 17.3389 24.3942 17.6735 24.1555 17.8114L21.799 19.1729C21.7591 19.1959 21.7201 19.2119 21.6832 19.2209C21.7361 19.4237 21.9199 19.4926 22.1287 19.3727L24.4851 18.0123C24.7238 17.8744 24.9076 17.5398 24.8947 17.264L24.7939 15.0164ZM20.7363 17.3619C20.7243 17.1331 20.5795 17.0182 20.3927 17.0652C20.4007 17.0941 20.4056 17.1272 20.4077 17.1621L20.5325 19.3887C20.5485 19.6644 20.3677 19.999 20.128 20.1369L17.7696 21.4985C17.7286 21.5225 17.6877 21.5385 17.6497 21.5474C17.7056 21.7502 17.8904 21.8191 18.0992 21.6993L20.4576 20.3377C20.6963 20.1999 20.8772 19.8642 20.8622 19.5895L20.7363 17.3619ZM24.6112 10.9608C24.6011 10.73 24.4563 10.6132 24.2685 10.6642C24.2765 10.6931 24.2805 10.7251 24.2825 10.7601L24.3834 13.0066C24.3954 13.2823 24.2116 13.618 23.9729 13.7558L21.5805 15.1373C21.5405 15.1603 21.5015 15.1763 21.4646 15.1852C21.5175 15.3881 21.7013 15.4579 21.9101 15.3381L24.3025 13.9565C24.5412 13.8187 24.725 13.4831 24.712 13.2073L24.6112 10.9608ZM20.5086 13.3323C20.4966 13.1026 20.3507 12.9877 20.1649 13.0356C20.1729 13.0646 20.1779 13.0965 20.1799 13.1315L20.3057 15.358C20.3207 15.6338 20.14 15.9694 19.9012 16.1072L17.5097 17.4877C17.4688 17.5117 17.4288 17.5277 17.3898 17.5357C17.4447 17.7385 17.6296 17.8093 17.8384 17.6885L20.2298 16.3069C20.4696 16.1691 20.6504 15.8344 20.6344 15.5587L20.5086 13.3323ZM16.411 15.7006C16.3951 15.4738 16.2502 15.3579 16.0654 15.403C16.0734 15.433 16.0794 15.465 16.0814 15.5008L16.2293 17.7094C16.2483 17.9842 16.0694 18.3188 15.8306 18.4576L13.4393 19.8371C13.3974 19.8611 13.3554 19.8781 13.3164 19.8861C13.3733 20.0889 13.5602 20.1578 13.7689 20.0379L16.1593 18.6574C16.398 18.5196 16.5768 18.1849 16.5589 17.9092L16.411 15.7006ZM24.9767 19.073C24.9657 18.8423 24.8209 18.7254 24.6331 18.7764C24.6411 18.8053 24.6451 18.8373 24.647 18.8723L24.7489 21.1189C24.7608 21.3946 24.577 21.7303 24.3383 21.8681L22.0179 23.2076C21.9779 23.2306 21.9389 23.2466 21.902 23.2546C21.9539 23.4584 22.1377 23.5293 22.3475 23.4084L24.668 22.0688C24.9068 21.931 25.0905 21.5954 25.0775 21.3196L24.9767 19.073ZM16.9475 23.714C16.9325 23.4862 16.7867 23.3713 16.6019 23.4173C16.6099 23.4463 16.6159 23.4782 16.6179 23.5132L16.7657 25.7218C16.7847 25.9976 16.6059 26.3321 16.3672 26.4701L14.0367 27.8156C13.9937 27.8396 13.9527 27.8566 13.9128 27.8646C13.9707 28.0663 14.1575 28.1363 14.3663 28.0164L16.6957 26.6708C16.9355 26.533 17.1133 26.1983 17.0953 25.9226L16.9475 23.714ZM16.6788 19.7073C16.6638 19.4805 16.5189 19.3646 16.3341 19.4097C16.3421 19.4396 16.3481 19.4716 16.3501 19.5076L16.498 21.7153C16.516 21.991 16.3372 22.3256 16.0984 22.4635L13.7379 23.827C13.696 23.851 13.655 23.8679 13.615 23.8759C13.6719 24.0776 13.8588 24.1467 14.0675 24.0268L16.428 22.6642C16.6668 22.5264 16.8455 22.1917 16.8266 21.916L16.6788 19.7073Z" fill="#27902E"/>
<path d="M41.4308 21.5988L25.9046 9.64981C25.7748 9.54991 25.589 9.481 25.3882 9.45605L25.9326 22.2201L25.9416 22.4359C26.1473 22.4549 26.3401 22.5048 26.507 22.6157L40.3429 32.1244L41.5826 21.8325V21.8255C41.5827 21.7566 41.5277 21.6717 41.4308 21.5988ZM35.4024 23.8015C35.4014 23.8144 35.4003 23.8274 35.3984 23.8395C35.3824 23.8305 35.3664 23.8205 35.3504 23.8085L32.0501 21.4341C31.8263 21.2733 31.6505 20.9186 31.6575 20.643L31.7094 18.6702C31.7094 18.6632 31.7094 18.6561 31.7104 18.6502C31.7194 18.6563 31.7274 18.6622 31.7363 18.6682L35.1626 21.2045C35.3843 21.3693 35.5482 21.725 35.5292 22.0007L35.4024 23.8015ZM40.1842 27.2796C40.1623 27.2686 40.1402 27.2547 40.1172 27.2387L36.8437 24.8832C36.62 24.7213 36.4552 24.3677 36.4772 24.0931L36.6131 22.317C36.614 22.306 36.6151 22.2951 36.6171 22.285C36.633 22.294 36.649 22.305 36.665 22.317L40.0333 24.8103C40.255 24.9751 40.4099 25.3298 40.3779 25.6044L40.1912 27.2347C40.1892 27.2507 40.1872 27.2657 40.1842 27.2796ZM36.9257 18.8618L40.4129 21.5289C40.6317 21.6968 40.7835 22.0544 40.7526 22.3291L40.5668 23.9563C40.5659 23.9693 40.5638 23.9823 40.5608 23.9943C40.5398 23.9832 40.5189 23.9703 40.4978 23.9543L37.1045 21.425C36.8837 21.2602 36.7219 20.9036 36.7429 20.6289L36.8787 18.8568C36.8797 18.8478 36.8797 18.8398 36.8807 18.8319C36.8958 18.8398 36.9107 18.8508 36.9257 18.8618ZM31.8282 14.963L35.4113 17.704C35.6311 17.8718 35.7929 18.2304 35.7729 18.5061L35.6471 20.3042C35.6461 20.3142 35.6452 20.3242 35.6441 20.3341C35.6291 20.3252 35.6151 20.3151 35.6001 20.3042L32.1419 17.727C31.9211 17.5622 31.7473 17.2046 31.7553 16.9289L31.8062 14.9591C31.8062 14.9551 31.8062 14.9511 31.8073 14.9481C31.8143 14.953 31.8213 14.958 31.8282 14.963ZM30.5776 20.3461C30.5776 20.3551 30.5776 20.3631 30.5766 20.3711C30.5676 20.3661 30.5597 20.3601 30.5517 20.3541L27.2133 17.9518C26.9895 17.79 26.8007 17.4363 26.7918 17.1607L26.7179 14.953L30.222 17.5472C30.4438 17.711 30.6196 18.0677 30.6146 18.3434L30.5776 20.3461ZM30.2949 13.7913C30.5147 13.9581 30.6875 14.3177 30.6826 14.5934L30.6466 16.5952V16.6102C30.6396 16.6062 30.6316 16.6001 30.6247 16.5952L27.0755 13.95C26.8537 13.7852 26.6669 13.4276 26.6579 13.1519L26.585 10.9523L30.2949 13.7913ZM30.4777 24.1151L27.3521 21.9495C27.1253 21.7927 26.9336 21.442 26.9245 21.1664L26.8516 18.9597V18.9508C26.8526 18.9508 26.8526 18.9517 26.8535 18.9517L30.1489 21.3061C30.3737 21.467 30.5514 21.8205 30.5465 22.0963L30.5095 24.1001C30.5095 24.1121 30.5086 24.1231 30.5076 24.1341C30.4977 24.1281 30.4877 24.122 30.4777 24.1151ZM35.1007 27.3176L31.9581 25.141C31.7313 24.9842 31.5536 24.6325 31.5606 24.3568L31.6125 22.3829C31.6125 22.373 31.6135 22.3639 31.6145 22.354C31.6245 22.361 31.6335 22.3669 31.6434 22.3739L34.9129 24.7094C35.1367 24.8702 35.3036 25.2229 35.2845 25.4986L35.1576 27.3036C35.1567 27.3196 35.1546 27.3346 35.1527 27.3485C35.1356 27.3405 35.1177 27.3296 35.1007 27.3176ZM39.7357 30.5291L36.583 28.3445C36.3562 28.1877 36.1895 27.837 36.2104 27.5624L36.3453 25.7813C36.3463 25.7673 36.3483 25.7534 36.3503 25.7404C36.3672 25.7504 36.3842 25.7614 36.4012 25.7733L39.6526 28.0969C39.8774 28.2567 40.0342 28.6093 40.0022 28.883L39.8155 30.5172C39.8134 30.5363 39.8105 30.5532 39.8065 30.5702C39.7836 30.559 39.7596 30.5461 39.7357 30.5291Z" fill="#27902E"/>
<path opacity="0.5" d="M41.4308 21.5988L25.9046 9.64981C25.7748 9.54991 25.589 9.481 25.3882 9.45605L25.9326 22.2201L25.9416 22.4359C26.1473 22.4549 26.3401 22.5048 26.507 22.6157L40.3429 32.1244L41.5826 21.8325V21.8255C41.5827 21.7566 41.5277 21.6717 41.4308 21.5988ZM35.4024 23.8015C35.4014 23.8144 35.4003 23.8274 35.3984 23.8395C35.3824 23.8305 35.3664 23.8205 35.3504 23.8085L32.0501 21.4341C31.8263 21.2733 31.6505 20.9186 31.6575 20.643L31.7094 18.6702C31.7094 18.6632 31.7094 18.6561 31.7104 18.6502C31.7194 18.6563 31.7274 18.6622 31.7363 18.6682L35.1626 21.2045C35.3843 21.3693 35.5482 21.725 35.5292 22.0007L35.4024 23.8015ZM40.1842 27.2796C40.1623 27.2686 40.1402 27.2547 40.1172 27.2387L36.8437 24.8832C36.62 24.7213 36.4552 24.3677 36.4772 24.0931L36.6131 22.317C36.614 22.306 36.6151 22.2951 36.6171 22.285C36.633 22.294 36.649 22.305 36.665 22.317L40.0333 24.8103C40.255 24.9751 40.4099 25.3298 40.3779 25.6044L40.1912 27.2347C40.1892 27.2507 40.1872 27.2657 40.1842 27.2796ZM36.9257 18.8618L40.4129 21.5289C40.6317 21.6968 40.7835 22.0544 40.7526 22.3291L40.5668 23.9563C40.5659 23.9693 40.5638 23.9823 40.5608 23.9943C40.5398 23.9832 40.5189 23.9703 40.4978 23.9543L37.1045 21.425C36.8837 21.2602 36.7219 20.9036 36.7429 20.6289L36.8787 18.8568C36.8797 18.8478 36.8797 18.8398 36.8807 18.8319C36.8958 18.8398 36.9107 18.8508 36.9257 18.8618ZM31.8282 14.963L35.4113 17.704C35.6311 17.8718 35.7929 18.2304 35.7729 18.5061L35.6471 20.3042C35.6461 20.3142 35.6452 20.3242 35.6441 20.3341C35.6291 20.3252 35.6151 20.3151 35.6001 20.3042L32.1419 17.727C31.9211 17.5622 31.7473 17.2046 31.7553 16.9289L31.8062 14.9591C31.8062 14.9551 31.8062 14.9511 31.8073 14.9481C31.8143 14.953 31.8213 14.958 31.8282 14.963ZM30.5776 20.3461C30.5776 20.3551 30.5776 20.3631 30.5766 20.3711C30.5676 20.3661 30.5597 20.3601 30.5517 20.3541L27.2133 17.9518C26.9895 17.79 26.8007 17.4363 26.7918 17.1607L26.7179 14.953L30.222 17.5472C30.4438 17.711 30.6196 18.0677 30.6146 18.3434L30.5776 20.3461ZM30.2949 13.7913C30.5147 13.9581 30.6875 14.3177 30.6826 14.5934L30.6466 16.5952V16.6102C30.6396 16.6062 30.6316 16.6001 30.6247 16.5952L27.0755 13.95C26.8537 13.7852 26.6669 13.4276 26.6579 13.1519L26.585 10.9523L30.2949 13.7913ZM30.4777 24.1151L27.3521 21.9495C27.1253 21.7927 26.9336 21.442 26.9245 21.1664L26.8516 18.9597V18.9508C26.8526 18.9508 26.8526 18.9517 26.8535 18.9517L30.1489 21.3061C30.3737 21.467 30.5514 21.8205 30.5465 22.0963L30.5095 24.1001C30.5095 24.1121 30.5086 24.1231 30.5076 24.1341C30.4977 24.1281 30.4877 24.122 30.4777 24.1151ZM35.1007 27.3176L31.9581 25.141C31.7313 24.9842 31.5536 24.6325 31.5606 24.3568L31.6125 22.3829C31.6125 22.373 31.6135 22.3639 31.6145 22.354C31.6245 22.361 31.6335 22.3669 31.6434 22.3739L34.9129 24.7094C35.1367 24.8702 35.3036 25.2229 35.2845 25.4986L35.1576 27.3036C35.1567 27.3196 35.1546 27.3346 35.1527 27.3485C35.1356 27.3405 35.1177 27.3296 35.1007 27.3176ZM39.7357 30.5291L36.583 28.3445C36.3562 28.1877 36.1895 27.837 36.2104 27.5624L36.3453 25.7813C36.3463 25.7673 36.3483 25.7534 36.3503 25.7404C36.3672 25.7504 36.3842 25.7614 36.4012 25.7733L39.6526 28.0969C39.8774 28.2567 40.0342 28.6093 40.0022 28.883L39.8155 30.5172C39.8134 30.5363 39.8105 30.5532 39.8065 30.5702C39.7836 30.559 39.7596 30.5461 39.7357 30.5291Z" fill="white"/>
<path d="M27.0752 13.9504C26.8534 13.7856 26.6666 13.428 26.6576 13.1522L26.5847 10.9526L26.5767 10.9466C26.357 10.7797 26.1872 10.8666 26.1961 11.1424L26.27 13.3529C26.279 13.6286 26.4658 13.9852 26.6866 14.1501L30.2367 16.7962C30.4535 16.9579 30.6343 16.874 30.6463 16.6104C30.6393 16.6064 30.6313 16.6004 30.6244 16.5954L27.0752 13.9504ZM27.2131 17.952C26.9893 17.7902 26.8005 17.4365 26.7915 17.1609L26.7177 14.9533L26.7146 14.9512C26.4929 14.7864 26.3211 14.8773 26.3301 15.1529L26.403 17.3606C26.413 17.6363 26.6018 17.9909 26.8255 18.1517L30.1638 20.554C30.3806 20.7108 30.5614 20.6279 30.5764 20.3712C30.5674 20.3662 30.5594 20.3602 30.5515 20.3542L27.2131 17.952ZM31.9579 25.1412C31.7311 24.9844 31.5534 24.6328 31.5604 24.357L31.6123 22.3831C31.6123 22.3732 31.6133 22.3641 31.6143 22.3542C31.4035 22.2223 31.2316 22.3192 31.2247 22.5839L31.1728 24.5578C31.1658 24.8335 31.3436 25.1841 31.5703 25.3409L34.7119 27.5175C34.9257 27.6664 35.1155 27.5895 35.1525 27.3487C35.1355 27.3407 35.1175 27.3297 35.1005 27.3177L31.9579 25.1412ZM27.352 21.9496C27.1252 21.7928 26.9335 21.4421 26.9244 21.1665L26.8515 18.9598V18.9509C26.6277 18.792 26.4539 18.886 26.4629 19.1606L26.5368 21.3662C26.5457 21.6419 26.7366 21.9925 26.9633 22.1493L30.0899 24.3149C30.3066 24.4658 30.4884 24.3838 30.5074 24.1341C30.4975 24.1281 30.4874 24.1221 30.4775 24.1151L27.352 21.9496ZM40.4976 23.9545L37.1042 21.4253C36.8835 21.2605 36.7217 20.9038 36.7427 20.6291L36.8785 18.857C36.8795 18.8481 36.8795 18.8401 36.8805 18.8321C36.6807 18.7082 36.5109 18.8011 36.4909 19.0568L36.3541 20.8289C36.3331 21.1046 36.496 21.4612 36.7167 21.626L40.109 24.1543C40.3197 24.3111 40.5155 24.2392 40.5606 23.9945C40.5396 23.9835 40.5187 23.9705 40.4976 23.9545ZM32.0498 21.4342C31.8261 21.2734 31.6502 20.9187 31.6573 20.6431L31.7092 18.6703C31.7092 18.6633 31.7092 18.6562 31.7102 18.6503C31.5005 18.5114 31.3286 18.6054 31.3216 18.8701L31.2697 20.8439C31.2626 21.1196 31.4385 21.4732 31.6622 21.634L34.9626 24.0084C35.1754 24.1612 35.3642 24.0853 35.3982 23.8396C35.3822 23.8306 35.3662 23.8206 35.3502 23.8086L32.0498 21.4342ZM36.8436 24.8835C36.6199 24.7216 36.4551 24.368 36.4771 24.0934L36.613 22.3173C36.6139 22.3063 36.615 22.2954 36.617 22.2854C36.4152 22.1665 36.2444 22.2624 36.2253 22.5181L36.0885 24.2932C36.0676 24.5689 36.2324 24.9225 36.4561 25.0833L39.7296 27.4398C39.9404 27.5916 40.1361 27.5187 40.1841 27.2799C40.1622 27.2689 40.1401 27.255 40.1171 27.239L36.8436 24.8835ZM36.5828 28.3447C36.356 28.1879 36.1893 27.8372 36.2102 27.5626L36.3451 25.7815C36.3461 25.7675 36.3481 25.7536 36.3501 25.7406C36.1473 25.6287 35.9765 25.7277 35.9575 25.9813L35.8216 27.7624C35.8007 28.0381 35.9674 28.3877 36.1942 28.5455L39.3478 30.7291C39.5596 30.876 39.7554 30.8041 39.8063 30.5703C39.7833 30.5593 39.7593 30.5463 39.7353 30.5293L36.5828 28.3447ZM32.1418 17.7272C31.921 17.5624 31.7472 17.2048 31.7552 16.9291L31.8061 14.9593C31.8061 14.9553 31.8061 14.9513 31.8072 14.9483C31.5973 14.8025 31.4256 14.8923 31.4186 15.1591L31.3666 17.129C31.3596 17.4047 31.5335 17.7623 31.7543 17.9271L35.2125 20.5043C35.4253 20.6632 35.6131 20.5862 35.6441 20.3346C35.6291 20.3256 35.6151 20.3156 35.6001 20.3047L32.1418 17.7272Z" fill="#27902E"/>
<path opacity="0.2" d="M27.0752 13.9504C26.8534 13.7856 26.6666 13.428 26.6576 13.1522L26.5847 10.9526L26.5767 10.9466C26.357 10.7797 26.1872 10.8666 26.1961 11.1424L26.27 13.3529C26.279 13.6286 26.4658 13.9852 26.6866 14.1501L30.2367 16.7962C30.4535 16.9579 30.6343 16.874 30.6463 16.6104C30.6393 16.6064 30.6313 16.6004 30.6244 16.5954L27.0752 13.9504ZM27.2131 17.952C26.9893 17.7902 26.8005 17.4365 26.7915 17.1609L26.7177 14.9533L26.7146 14.9512C26.4929 14.7864 26.3211 14.8773 26.3301 15.1529L26.403 17.3606C26.413 17.6363 26.6018 17.9909 26.8255 18.1517L30.1638 20.554C30.3806 20.7108 30.5614 20.6279 30.5764 20.3712C30.5674 20.3662 30.5594 20.3602 30.5515 20.3542L27.2131 17.952ZM31.9579 25.1412C31.7311 24.9844 31.5534 24.6328 31.5604 24.357L31.6123 22.3831C31.6123 22.3732 31.6133 22.3641 31.6143 22.3542C31.4035 22.2223 31.2316 22.3192 31.2247 22.5839L31.1728 24.5578C31.1658 24.8335 31.3436 25.1841 31.5703 25.3409L34.7119 27.5175C34.9257 27.6664 35.1155 27.5895 35.1525 27.3487C35.1355 27.3407 35.1175 27.3297 35.1005 27.3177L31.9579 25.1412ZM27.352 21.9496C27.1252 21.7928 26.9335 21.4421 26.9244 21.1665L26.8515 18.9598V18.9509C26.6277 18.792 26.4539 18.886 26.4629 19.1606L26.5368 21.3662C26.5457 21.6419 26.7366 21.9925 26.9633 22.1493L30.0899 24.3149C30.3066 24.4658 30.4884 24.3838 30.5074 24.1341C30.4975 24.1281 30.4874 24.1221 30.4775 24.1151L27.352 21.9496ZM40.4976 23.9545L37.1042 21.4253C36.8835 21.2605 36.7217 20.9038 36.7427 20.6291L36.8785 18.857C36.8795 18.8481 36.8795 18.8401 36.8805 18.8321C36.6807 18.7082 36.5109 18.8011 36.4909 19.0568L36.3541 20.8289C36.3331 21.1046 36.496 21.4612 36.7167 21.626L40.109 24.1543C40.3197 24.3111 40.5155 24.2392 40.5606 23.9945C40.5396 23.9835 40.5187 23.9705 40.4976 23.9545ZM32.0498 21.4342C31.8261 21.2734 31.6502 20.9187 31.6573 20.6431L31.7092 18.6703C31.7092 18.6633 31.7092 18.6562 31.7102 18.6503C31.5005 18.5114 31.3286 18.6054 31.3216 18.8701L31.2697 20.8439C31.2626 21.1196 31.4385 21.4732 31.6622 21.634L34.9626 24.0084C35.1754 24.1612 35.3642 24.0853 35.3982 23.8396C35.3822 23.8306 35.3662 23.8206 35.3502 23.8086L32.0498 21.4342ZM36.8436 24.8835C36.6199 24.7216 36.4551 24.368 36.4771 24.0934L36.613 22.3173C36.6139 22.3063 36.615 22.2954 36.617 22.2854C36.4152 22.1665 36.2444 22.2624 36.2253 22.5181L36.0885 24.2932C36.0676 24.5689 36.2324 24.9225 36.4561 25.0833L39.7296 27.4398C39.9404 27.5916 40.1361 27.5187 40.1841 27.2799C40.1622 27.2689 40.1401 27.255 40.1171 27.239L36.8436 24.8835ZM36.5828 28.3447C36.356 28.1879 36.1893 27.8372 36.2102 27.5626L36.3451 25.7815C36.3461 25.7675 36.3481 25.7536 36.3501 25.7406C36.1473 25.6287 35.9765 25.7277 35.9575 25.9813L35.8216 27.7624C35.8007 28.0381 35.9674 28.3877 36.1942 28.5455L39.3478 30.7291C39.5596 30.876 39.7554 30.8041 39.8063 30.5703C39.7833 30.5593 39.7593 30.5463 39.7353 30.5293L36.5828 28.3447ZM32.1418 17.7272C31.921 17.5624 31.7472 17.2048 31.7552 16.9291L31.8061 14.9593C31.8061 14.9553 31.8061 14.9513 31.8072 14.9483C31.5973 14.8025 31.4256 14.8923 31.4186 15.1591L31.3666 17.129C31.3596 17.4047 31.5335 17.7623 31.7543 17.9271L35.2125 20.5043C35.4253 20.6632 35.6131 20.5862 35.6441 20.3346C35.6291 20.3256 35.6151 20.3156 35.6001 20.3047L32.1418 17.7272Z" fill="white"/>
<path d="M41.6747 21.2823L26.1485 9.33332C25.711 8.99669 24.9698 8.94776 24.4914 9.22349L12.1768 16.3338C11.9396 16.4707 11.821 16.6484 11.8208 16.8253H12.2207C12.2217 16.8143 12.2517 16.7514 12.3766 16.6805L24.6912 9.57017C24.831 9.48928 25.0188 9.44532 25.2185 9.44532C25.4813 9.44532 25.738 9.52222 25.9048 9.65009L41.4309 21.599C41.5308 21.6749 41.5868 21.7628 41.5828 21.8327H41.9824C41.9856 21.6404 41.884 21.4429 41.6747 21.2823Z" fill="#27902E"/>
<path opacity="0.7" d="M41.6747 21.2823L26.1485 9.33332C25.711 8.99669 24.9698 8.94776 24.4914 9.22349L12.1768 16.3338C11.9396 16.4707 11.821 16.6484 11.8208 16.8253H12.2207C12.2217 16.8143 12.2517 16.7514 12.3766 16.6805L24.6912 9.57017C24.831 9.48928 25.0188 9.44532 25.2185 9.44532C25.4813 9.44532 25.738 9.52222 25.9048 9.65009L41.4309 21.599C41.5308 21.6749 41.5868 21.7628 41.5828 21.8327H41.9824C41.9856 21.6404 41.884 21.4429 41.6747 21.2823Z" fill="white"/>
<path d="M30.7962 27.6397L12.1843 17.3179C11.9666 17.197 11.8477 17.0422 11.8247 16.8813L12.8076 29.5776C12.8076 29.5816 12.8076 29.5866 12.8086 29.5906C12.8255 29.7504 12.9524 29.9052 13.1892 30.0191L29.6503 37.9675C29.9091 38.0923 30.2467 38.1443 30.5793 38.1264L31.7011 27.8356C31.3755 27.8435 31.0459 27.7785 30.7962 27.6397ZM25.6808 25.3401L30.5395 28.0192C30.7812 28.153 30.9541 28.4837 30.9271 28.7574L30.7294 30.7242C30.7254 30.7632 30.7174 30.7992 30.7063 30.8312C30.6774 30.8232 30.6464 30.8102 30.6164 30.7942L25.9415 28.3049C25.6977 28.1751 25.509 27.8475 25.52 27.5717L25.6029 25.405C25.6039 25.3711 25.609 25.3392 25.6159 25.3101C25.6368 25.3182 25.6588 25.3281 25.6808 25.3401ZM24.3192 31.2327L19.8611 28.9651C19.6154 28.8403 19.4106 28.5156 19.4056 28.2399L19.3546 25.8505C19.3536 25.8166 19.3566 25.7845 19.3616 25.7556C19.3766 25.7626 19.3915 25.7696 19.4075 25.7776L24.0464 28.2319C24.2902 28.3608 24.4809 28.6894 24.4719 28.9651L24.4021 31.1528C24.4011 31.1918 24.395 31.2277 24.3861 31.2607C24.3642 31.2538 24.3422 31.2437 24.3192 31.2327ZM30.5785 32.2117L30.3796 34.1766C30.3757 34.2185 30.3667 34.2565 30.3537 34.2904C30.3238 34.2824 30.2928 34.2704 30.2618 34.2544L25.8037 31.988C25.558 31.8631 25.3672 31.5375 25.3782 31.2627L25.461 29.0971C25.4621 29.0602 25.4671 29.0262 25.476 28.9953C25.498 29.0023 25.52 29.0122 25.543 29.0242L30.187 31.4815C30.4316 31.6104 30.6064 31.937 30.5785 32.2117ZM19.3167 21.83L24.1694 24.5071C24.4111 24.64 24.5999 24.9716 24.591 25.2474L24.5211 27.435C24.5201 27.471 24.5151 27.505 24.5081 27.5359C24.4862 27.5289 24.4642 27.5189 24.4421 27.5069L19.7722 25.0207C19.5285 24.8918 19.3267 24.5632 19.3208 24.2874L19.2688 21.896C19.2677 21.865 19.2698 21.8361 19.2738 21.8091C19.2877 21.815 19.3017 21.822 19.3167 21.83ZM18.3766 28.2111L13.9185 25.9435C13.6728 25.8187 13.457 25.494 13.437 25.2193L13.2473 22.6042C13.2453 22.5741 13.2453 22.5463 13.2473 22.5202C13.2553 22.5233 13.2642 22.5273 13.2733 22.5322L17.9133 24.9875C18.1571 25.1163 18.3609 25.444 18.3678 25.7197L18.4307 28.1301C18.4317 28.167 18.4287 28.201 18.4228 28.2319C18.4076 28.226 18.3926 28.219 18.3766 28.2111ZM12.9636 18.3268L17.8074 20.9979C18.0491 21.1307 18.2509 21.4624 18.2578 21.7381L18.3227 24.1515C18.3237 24.1844 18.3218 24.2154 18.3168 24.2434C18.3028 24.2384 18.2888 24.2314 18.2738 24.2234L13.6079 21.7391C13.3641 21.6093 13.1504 21.2816 13.1304 21.0059L12.9407 18.3906C12.9387 18.3636 12.9387 18.3387 12.9397 18.3147C12.9476 18.3177 12.9556 18.3227 12.9636 18.3268ZM18.4636 31.6283L14.1842 29.5455C13.9364 29.4247 13.7187 29.104 13.6987 28.8293L13.5529 26.8175C13.5509 26.7835 13.5509 26.7525 13.555 26.7236C13.5639 26.7266 13.574 26.7316 13.5839 26.7366L18.0121 28.9731C18.2589 29.097 18.4647 29.4217 18.4717 29.6974L18.5216 31.5404C18.5225 31.5794 18.5196 31.6154 18.5115 31.6483C18.4955 31.6433 18.4796 31.6363 18.4636 31.6283ZM24.2134 34.4263L19.937 32.3455C19.6893 32.2247 19.4835 31.9031 19.4775 31.6273L19.4385 29.8033C19.4375 29.7664 19.4404 29.7314 19.4465 29.7004C19.4625 29.7074 19.4794 29.7143 19.4955 29.7224L23.9227 31.958C24.1694 32.0819 24.3622 32.4066 24.3532 32.6823L24.3003 34.3385C24.2994 34.3804 24.2933 34.4194 24.2823 34.4534C24.2593 34.4472 24.2363 34.4373 24.2134 34.4263ZM29.9581 37.2223L25.6858 35.1425C25.438 35.0226 25.2452 34.701 25.2562 34.4253L25.3192 32.7881C25.3211 32.7482 25.3262 32.7112 25.3362 32.6783C25.3592 32.6842 25.3822 32.6943 25.4061 32.7063L29.8333 34.9419C30.079 35.0667 30.2569 35.3894 30.2289 35.6641L30.0791 37.1364C30.0751 37.1804 30.065 37.2203 30.0511 37.2563C30.02 37.2493 29.989 37.2373 29.9581 37.2223Z" fill="#27902E"/>
<path opacity="0.5" d="M30.7962 27.6397L12.1843 17.3179C11.9666 17.197 11.8477 17.0422 11.8247 16.8813L12.8076 29.5776C12.8076 29.5816 12.8076 29.5866 12.8086 29.5906C12.8255 29.7504 12.9524 29.9052 13.1892 30.0191L29.6503 37.9675C29.9091 38.0923 30.2467 38.1443 30.5793 38.1264L31.7011 27.8356C31.3755 27.8435 31.0459 27.7785 30.7962 27.6397ZM25.6808 25.3401L30.5395 28.0192C30.7812 28.153 30.9541 28.4837 30.9271 28.7574L30.7294 30.7242C30.7254 30.7632 30.7174 30.7992 30.7063 30.8312C30.6774 30.8232 30.6464 30.8102 30.6164 30.7942L25.9415 28.3049C25.6977 28.1751 25.509 27.8475 25.52 27.5717L25.6029 25.405C25.6039 25.3711 25.609 25.3392 25.6159 25.3101C25.6368 25.3182 25.6588 25.3281 25.6808 25.3401ZM24.3192 31.2327L19.8611 28.9651C19.6154 28.8403 19.4106 28.5156 19.4056 28.2399L19.3546 25.8505C19.3536 25.8166 19.3566 25.7845 19.3616 25.7556C19.3766 25.7626 19.3915 25.7696 19.4075 25.7776L24.0464 28.2319C24.2902 28.3608 24.4809 28.6894 24.4719 28.9651L24.4021 31.1528C24.4011 31.1918 24.395 31.2277 24.3861 31.2607C24.3642 31.2538 24.3422 31.2437 24.3192 31.2327ZM30.5785 32.2117L30.3796 34.1766C30.3757 34.2185 30.3667 34.2565 30.3537 34.2904C30.3238 34.2824 30.2928 34.2704 30.2618 34.2544L25.8037 31.988C25.558 31.8631 25.3672 31.5375 25.3782 31.2627L25.461 29.0971C25.4621 29.0602 25.4671 29.0262 25.476 28.9953C25.498 29.0023 25.52 29.0122 25.543 29.0242L30.187 31.4815C30.4316 31.6104 30.6064 31.937 30.5785 32.2117ZM19.3167 21.83L24.1694 24.5071C24.4111 24.64 24.5999 24.9716 24.591 25.2474L24.5211 27.435C24.5201 27.471 24.5151 27.505 24.5081 27.5359C24.4862 27.5289 24.4642 27.5189 24.4421 27.5069L19.7722 25.0207C19.5285 24.8918 19.3267 24.5632 19.3208 24.2874L19.2688 21.896C19.2677 21.865 19.2698 21.8361 19.2738 21.8091C19.2877 21.815 19.3017 21.822 19.3167 21.83ZM18.3766 28.2111L13.9185 25.9435C13.6728 25.8187 13.457 25.494 13.437 25.2193L13.2473 22.6042C13.2453 22.5741 13.2453 22.5463 13.2473 22.5202C13.2553 22.5233 13.2642 22.5273 13.2733 22.5322L17.9133 24.9875C18.1571 25.1163 18.3609 25.444 18.3678 25.7197L18.4307 28.1301C18.4317 28.167 18.4287 28.201 18.4228 28.2319C18.4076 28.226 18.3926 28.219 18.3766 28.2111ZM12.9636 18.3268L17.8074 20.9979C18.0491 21.1307 18.2509 21.4624 18.2578 21.7381L18.3227 24.1515C18.3237 24.1844 18.3218 24.2154 18.3168 24.2434C18.3028 24.2384 18.2888 24.2314 18.2738 24.2234L13.6079 21.7391C13.3641 21.6093 13.1504 21.2816 13.1304 21.0059L12.9407 18.3906C12.9387 18.3636 12.9387 18.3387 12.9397 18.3147C12.9476 18.3177 12.9556 18.3227 12.9636 18.3268ZM18.4636 31.6283L14.1842 29.5455C13.9364 29.4247 13.7187 29.104 13.6987 28.8293L13.5529 26.8175C13.5509 26.7835 13.5509 26.7525 13.555 26.7236C13.5639 26.7266 13.574 26.7316 13.5839 26.7366L18.0121 28.9731C18.2589 29.097 18.4647 29.4217 18.4717 29.6974L18.5216 31.5404C18.5225 31.5794 18.5196 31.6154 18.5115 31.6483C18.4955 31.6433 18.4796 31.6363 18.4636 31.6283ZM24.2134 34.4263L19.937 32.3455C19.6893 32.2247 19.4835 31.9031 19.4775 31.6273L19.4385 29.8033C19.4375 29.7664 19.4404 29.7314 19.4465 29.7004C19.4625 29.7074 19.4794 29.7143 19.4955 29.7224L23.9227 31.958C24.1694 32.0819 24.3622 32.4066 24.3532 32.6823L24.3003 34.3385C24.2994 34.3804 24.2933 34.4194 24.2823 34.4534C24.2593 34.4472 24.2363 34.4373 24.2134 34.4263ZM29.9581 37.2223L25.6858 35.1425C25.438 35.0226 25.2452 34.701 25.2562 34.4253L25.3192 32.7881C25.3211 32.7482 25.3262 32.7112 25.3362 32.6783C25.3592 32.6842 25.3822 32.6943 25.4061 32.7063L29.8333 34.9419C30.079 35.0667 30.2569 35.3894 30.2289 35.6641L30.0791 37.1364C30.0751 37.1804 30.065 37.2203 30.0511 37.2563C30.02 37.2493 29.989 37.2373 29.9581 37.2223Z" fill="white"/>
<path d="M29.958 37.2221L25.6856 35.1424C25.4379 35.0225 25.2451 34.7009 25.2561 34.4252L25.3191 32.788C25.321 32.748 25.3261 32.7111 25.336 32.6782C25.1213 32.6072 24.9505 32.7311 24.9404 32.9798L24.8775 34.618C24.8675 34.8938 25.0594 35.2144 25.3081 35.3353L29.5795 37.415C29.7882 37.5159 29.98 37.444 30.051 37.2562C30.0199 37.2491 29.9889 37.2372 29.958 37.2221ZM30.6163 30.7941L25.9414 28.3048C25.6976 28.175 25.5088 27.8473 25.5199 27.5716L25.6028 25.4049C25.6038 25.371 25.6089 25.339 25.6158 25.31C25.404 25.2291 25.2342 25.3469 25.2242 25.5977L25.1412 27.7644C25.1302 28.0391 25.319 28.3678 25.5627 28.4976L30.2376 30.9869C30.4464 31.0978 30.6382 31.0268 30.7061 30.831C30.6772 30.823 30.6463 30.8101 30.6163 30.7941ZM30.2616 34.2543L25.8035 31.9878C25.5578 31.863 25.3669 31.5374 25.3779 31.2626L25.4608 29.097C25.4619 29.06 25.4668 29.026 25.4758 28.9951C25.2621 28.9182 25.0922 29.0401 25.0822 29.2898L24.9993 31.4544C24.9883 31.7301 25.1791 32.0548 25.4248 32.1806L29.884 34.4471C30.0928 34.5529 30.2836 34.4821 30.3535 34.2903C30.3236 34.2823 30.2926 34.2703 30.2616 34.2543ZM24.3191 31.2326L19.861 28.965C19.6153 28.8402 19.4105 28.5155 19.4054 28.2398L19.3545 25.8504C19.3535 25.8165 19.3565 25.7844 19.3615 25.7555C19.1398 25.6645 18.971 25.7854 18.9759 26.0432L19.0269 28.4326C19.0329 28.7083 19.2366 29.0329 19.4824 29.1578L23.9406 31.4254C24.1513 31.5323 24.3332 31.4583 24.3861 31.2605C24.364 31.2536 24.3421 31.2436 24.3191 31.2326ZM24.4419 27.5067L19.772 25.0204C19.5282 24.8916 19.3265 24.5629 19.3206 24.2872L19.2686 21.8958C19.2675 21.8648 19.2696 21.8358 19.2736 21.8088C19.0528 21.7119 18.884 21.8298 18.8901 22.0885L18.942 24.4789C18.948 24.7546 19.1508 25.0833 19.3936 25.2131L24.0645 27.6994C24.2753 27.8122 24.457 27.7373 24.508 27.5355C24.486 27.5286 24.4639 27.5187 24.4419 27.5067ZM18.3765 28.211L13.9184 25.9434C13.6727 25.8185 13.4569 25.4939 13.4369 25.2191L13.2472 22.604C13.2452 22.574 13.2452 22.5461 13.2472 22.5201C13.0164 22.4122 12.8496 22.5321 12.8686 22.7968L13.0584 25.4119C13.0784 25.6867 13.2942 26.0112 13.5399 26.1362L17.998 28.4027C18.2107 28.5115 18.3845 28.4336 18.4225 28.2318C18.4075 28.2259 18.3925 28.2188 18.3765 28.211ZM24.2133 34.4261L19.9369 32.3454C19.6892 32.2246 19.4834 31.9029 19.4774 31.6272L19.4384 29.8032C19.4374 29.7663 19.4403 29.7313 19.4464 29.7003C19.2236 29.6144 19.0538 29.7383 19.0598 29.996L19.0988 31.82C19.1049 32.0957 19.3106 32.4173 19.5584 32.5382L23.8347 34.6189C24.0445 34.7218 24.2263 34.6469 24.2823 34.4531C24.2592 34.4471 24.2362 34.4371 24.2133 34.4261ZM18.2737 24.2233L13.6078 21.7389C13.364 21.6091 13.1503 21.2815 13.1303 21.0057L12.9406 18.3905C12.9386 18.3635 12.9386 18.3386 12.9396 18.3146C12.7099 18.2008 12.543 18.3166 12.562 18.5833L12.7518 21.1984C12.7718 21.4741 12.9855 21.8018 13.2292 21.9316L17.8952 24.4159C18.11 24.5298 18.2838 24.4519 18.3167 24.2431C18.3027 24.2382 18.2886 24.2313 18.2737 24.2233ZM18.4635 31.6282L14.1841 29.5454C13.9363 29.4245 13.7186 29.1039 13.6986 28.8291L13.5528 26.8173C13.5508 26.7834 13.5508 26.7524 13.5549 26.7235C13.3241 26.6226 13.1553 26.7454 13.1743 27.0091L13.3212 29.0219C13.3411 29.2967 13.5579 29.6173 13.8056 29.7382L18.085 31.821C18.2988 31.9249 18.4726 31.847 18.5115 31.6482C18.4954 31.6432 18.4795 31.6362 18.4635 31.6282Z" fill="#27902E"/>
<path opacity="0.2" d="M29.958 37.2221L25.6856 35.1424C25.4379 35.0225 25.2451 34.7009 25.2561 34.4252L25.3191 32.788C25.321 32.748 25.3261 32.7111 25.336 32.6782C25.1213 32.6072 24.9505 32.7311 24.9404 32.9798L24.8775 34.618C24.8675 34.8938 25.0594 35.2144 25.3081 35.3353L29.5795 37.415C29.7882 37.5159 29.98 37.444 30.051 37.2562C30.0199 37.2491 29.9889 37.2372 29.958 37.2221ZM30.6163 30.7941L25.9414 28.3048C25.6976 28.175 25.5088 27.8473 25.5199 27.5716L25.6028 25.4049C25.6038 25.371 25.6089 25.339 25.6158 25.31C25.404 25.2291 25.2342 25.3469 25.2242 25.5977L25.1412 27.7644C25.1302 28.0391 25.319 28.3678 25.5627 28.4976L30.2376 30.9869C30.4464 31.0978 30.6382 31.0268 30.7061 30.831C30.6772 30.823 30.6463 30.8101 30.6163 30.7941ZM30.2616 34.2543L25.8035 31.9878C25.5578 31.863 25.3669 31.5374 25.3779 31.2626L25.4608 29.097C25.4619 29.06 25.4668 29.026 25.4758 28.9951C25.2621 28.9182 25.0922 29.0401 25.0822 29.2898L24.9993 31.4544C24.9883 31.7301 25.1791 32.0548 25.4248 32.1806L29.884 34.4471C30.0928 34.5529 30.2836 34.4821 30.3535 34.2903C30.3236 34.2823 30.2926 34.2703 30.2616 34.2543ZM24.3191 31.2326L19.861 28.965C19.6153 28.8402 19.4105 28.5155 19.4054 28.2398L19.3545 25.8504C19.3535 25.8165 19.3565 25.7844 19.3615 25.7555C19.1398 25.6645 18.971 25.7854 18.9759 26.0432L19.0269 28.4326C19.0329 28.7083 19.2366 29.0329 19.4824 29.1578L23.9406 31.4254C24.1513 31.5323 24.3332 31.4583 24.3861 31.2605C24.364 31.2536 24.3421 31.2436 24.3191 31.2326ZM24.4419 27.5067L19.772 25.0204C19.5282 24.8916 19.3265 24.5629 19.3206 24.2872L19.2686 21.8958C19.2675 21.8648 19.2696 21.8358 19.2736 21.8088C19.0528 21.7119 18.884 21.8298 18.8901 22.0885L18.942 24.4789C18.948 24.7546 19.1508 25.0833 19.3936 25.2131L24.0645 27.6994C24.2753 27.8122 24.457 27.7373 24.508 27.5355C24.486 27.5286 24.4639 27.5187 24.4419 27.5067ZM18.3765 28.211L13.9184 25.9434C13.6727 25.8185 13.4569 25.4939 13.4369 25.2191L13.2472 22.604C13.2452 22.574 13.2452 22.5461 13.2472 22.5201C13.0164 22.4122 12.8496 22.5321 12.8686 22.7968L13.0584 25.4119C13.0784 25.6867 13.2942 26.0112 13.5399 26.1362L17.998 28.4027C18.2107 28.5115 18.3845 28.4336 18.4225 28.2318C18.4075 28.2259 18.3925 28.2188 18.3765 28.211ZM24.2133 34.4261L19.9369 32.3454C19.6892 32.2246 19.4834 31.9029 19.4774 31.6272L19.4384 29.8032C19.4374 29.7663 19.4403 29.7313 19.4464 29.7003C19.2236 29.6144 19.0538 29.7383 19.0598 29.996L19.0988 31.82C19.1049 32.0957 19.3106 32.4173 19.5584 32.5382L23.8347 34.6189C24.0445 34.7218 24.2263 34.6469 24.2823 34.4531C24.2592 34.4471 24.2362 34.4371 24.2133 34.4261ZM18.2737 24.2233L13.6078 21.7389C13.364 21.6091 13.1503 21.2815 13.1303 21.0057L12.9406 18.3905C12.9386 18.3635 12.9386 18.3386 12.9396 18.3146C12.7099 18.2008 12.543 18.3166 12.562 18.5833L12.7518 21.1984C12.7718 21.4741 12.9855 21.8018 13.2292 21.9316L17.8952 24.4159C18.11 24.5298 18.2838 24.4519 18.3167 24.2431C18.3027 24.2382 18.2886 24.2313 18.2737 24.2233ZM18.4635 31.6282L14.1841 29.5454C13.9363 29.4245 13.7186 29.1039 13.6986 28.8291L13.5528 26.8173C13.5508 26.7834 13.5508 26.7524 13.5549 26.7235C13.3241 26.6226 13.1553 26.7454 13.1743 27.0091L13.3212 29.0219C13.3411 29.2967 13.5579 29.6173 13.8056 29.7382L18.085 31.821C18.2988 31.9249 18.4726 31.847 18.5115 31.6482C18.4954 31.6432 18.4795 31.6362 18.4635 31.6282Z" fill="white"/>
<path d="M41.6016 22.3902L32.5355 27.6245C32.3048 27.7574 32.0051 27.8283 31.7014 27.8353L30.5796 38.1261C30.8852 38.1101 31.1869 38.0352 31.4156 37.9023L40.3549 32.7409C40.5756 32.613 40.6976 32.4433 40.7214 32.2665L40.7245 32.2404L41.9711 21.9297C41.9362 22.1045 41.8123 22.2684 41.6016 22.3902ZM40.4828 26.8134L40.246 28.7793C40.2131 29.0529 39.9933 29.3867 39.7545 29.5245L36.5021 31.4024C36.4671 31.4223 36.4342 31.4364 36.4032 31.4463C36.4001 31.4153 36.4001 31.3814 36.4041 31.3455L36.6119 29.4155C36.6409 29.1408 36.8586 28.8062 37.0974 28.6683L40.3918 26.7585C40.4248 26.7395 40.4558 26.7255 40.4857 26.7155C40.4878 26.7455 40.4868 26.7775 40.4828 26.8134ZM35.71 29.5734L35.4973 31.5173C35.4673 31.7919 35.2495 32.1256 35.0108 32.2635L31.7105 34.1684C31.6765 34.1874 31.6446 34.2023 31.6136 34.2123C31.6106 34.1813 31.6106 34.1484 31.6146 34.1124L31.8273 32.1675C31.8583 31.8929 32.076 31.5592 32.3148 31.4214L35.6133 29.5165C35.6473 29.4965 35.6802 29.4825 35.7111 29.4735C35.714 29.5045 35.714 29.5375 35.71 29.5734ZM40.8974 23.3641L40.6616 25.329C40.6287 25.6027 40.4079 25.9364 40.1691 26.0752L36.8677 27.981C36.8347 28 36.8028 28.014 36.7727 28.024C36.7708 27.9941 36.7718 27.9611 36.7757 27.9251L37.0124 25.9602C37.0453 25.6855 37.2651 25.3519 37.5039 25.2141L40.8063 23.3081C40.8393 23.2891 40.8703 23.2752 40.9002 23.2651C40.9023 23.2952 40.9014 23.3282 40.8974 23.3641ZM36.1196 26.1212L35.8788 28.091C35.8449 28.3647 35.6242 28.6984 35.3854 28.8362L32.0869 30.7411C32.053 30.7611 32.02 30.775 31.9891 30.7841C31.9861 30.7531 31.9861 30.7201 31.9901 30.6842L32.2038 28.7393C32.2337 28.4656 32.4525 28.1309 32.6913 27.9931L36.0297 26.0662C36.0617 26.0472 36.0936 26.0333 36.1226 26.0242C36.1245 26.0542 36.1236 26.0863 36.1196 26.1212ZM31.2917 37.0503L31.4516 35.5949C31.4815 35.3213 31.6993 34.9866 31.938 34.8488L35.2454 32.9399C35.2804 32.9189 35.3143 32.9039 35.3463 32.8949C35.3503 32.9259 35.3503 32.9589 35.3463 32.9958L35.2015 34.4373C35.1735 34.7109 34.9577 35.0456 34.719 35.1834L31.3886 37.1064C31.3546 37.1264 31.3217 37.1403 31.2908 37.1503C31.2877 37.1192 31.2877 37.0863 31.2917 37.0503ZM36.0676 34.2903L36.2235 32.8408C36.2524 32.5661 36.4701 32.2325 36.7089 32.0946L39.9763 30.2077C40.0093 30.1887 40.0413 30.1747 40.0713 30.1647C40.0733 30.1946 40.0722 30.2277 40.0683 30.2636L39.8905 31.736C39.8575 32.0097 39.6378 32.3434 39.399 32.4812L36.1655 34.3461C36.1305 34.3661 36.0975 34.3811 36.0665 34.3911C36.0636 34.3603 36.0636 34.3272 36.0676 34.2903Z" fill="#27902E"/>
<path opacity="0.3" d="M41.6016 22.3902L32.5355 27.6245C32.3048 27.7574 32.0051 27.8283 31.7014 27.8353L30.5796 38.1261C30.8852 38.1101 31.1869 38.0352 31.4156 37.9023L40.3549 32.7409C40.5756 32.613 40.6976 32.4433 40.7214 32.2665L40.7245 32.2404L41.9711 21.9297C41.9362 22.1045 41.8123 22.2684 41.6016 22.3902ZM40.4828 26.8134L40.246 28.7793C40.2131 29.0529 39.9933 29.3867 39.7545 29.5245L36.5021 31.4024C36.4671 31.4223 36.4342 31.4364 36.4032 31.4463C36.4001 31.4153 36.4001 31.3814 36.4041 31.3455L36.6119 29.4155C36.6409 29.1408 36.8586 28.8062 37.0974 28.6683L40.3918 26.7585C40.4248 26.7395 40.4558 26.7255 40.4857 26.7155C40.4878 26.7455 40.4868 26.7775 40.4828 26.8134ZM35.71 29.5734L35.4973 31.5173C35.4673 31.7919 35.2495 32.1256 35.0108 32.2635L31.7105 34.1684C31.6765 34.1874 31.6446 34.2023 31.6136 34.2123C31.6106 34.1813 31.6106 34.1484 31.6146 34.1124L31.8273 32.1675C31.8583 31.8929 32.076 31.5592 32.3148 31.4214L35.6133 29.5165C35.6473 29.4965 35.6802 29.4825 35.7111 29.4735C35.714 29.5045 35.714 29.5375 35.71 29.5734ZM40.8974 23.3641L40.6616 25.329C40.6287 25.6027 40.4079 25.9364 40.1691 26.0752L36.8677 27.981C36.8347 28 36.8028 28.014 36.7727 28.024C36.7708 27.9941 36.7718 27.9611 36.7757 27.9251L37.0124 25.9602C37.0453 25.6855 37.2651 25.3519 37.5039 25.2141L40.8063 23.3081C40.8393 23.2891 40.8703 23.2752 40.9002 23.2651C40.9023 23.2952 40.9014 23.3282 40.8974 23.3641ZM36.1196 26.1212L35.8788 28.091C35.8449 28.3647 35.6242 28.6984 35.3854 28.8362L32.0869 30.7411C32.053 30.7611 32.02 30.775 31.9891 30.7841C31.9861 30.7531 31.9861 30.7201 31.9901 30.6842L32.2038 28.7393C32.2337 28.4656 32.4525 28.1309 32.6913 27.9931L36.0297 26.0662C36.0617 26.0472 36.0936 26.0333 36.1226 26.0242C36.1245 26.0542 36.1236 26.0863 36.1196 26.1212ZM31.2917 37.0503L31.4516 35.5949C31.4815 35.3213 31.6993 34.9866 31.938 34.8488L35.2454 32.9399C35.2804 32.9189 35.3143 32.9039 35.3463 32.8949C35.3503 32.9259 35.3503 32.9589 35.3463 32.9958L35.2015 34.4373C35.1735 34.7109 34.9577 35.0456 34.719 35.1834L31.3886 37.1064C31.3546 37.1264 31.3217 37.1403 31.2908 37.1503C31.2877 37.1192 31.2877 37.0863 31.2917 37.0503ZM36.0676 34.2903L36.2235 32.8408C36.2524 32.5661 36.4701 32.2325 36.7089 32.0946L39.9763 30.2077C40.0093 30.1887 40.0413 30.1747 40.0713 30.1647C40.0733 30.1946 40.0722 30.2277 40.0683 30.2636L39.8905 31.736C39.8575 32.0097 39.6378 32.3434 39.399 32.4812L36.1655 34.3461C36.1305 34.3661 36.0975 34.3811 36.0665 34.3911C36.0636 34.3603 36.0636 34.3272 36.0676 34.2903Z" fill="white"/>
<path d="M36.1227 26.0241C36.1247 26.054 36.1237 26.0861 36.1197 26.121L35.879 28.0908C35.8451 28.3645 35.6243 28.6982 35.3855 28.836L32.0871 30.7409C32.0532 30.7609 32.0201 30.7748 31.9892 30.7839C32.0062 30.9837 32.1611 31.0506 32.3689 30.9308L35.6673 29.0268C35.906 28.889 36.1267 28.5553 36.1607 28.2816L36.4015 26.3118C36.4303 26.0751 36.3095 25.9611 36.1227 26.0241ZM40.9005 23.2651C40.9026 23.2952 40.9015 23.3281 40.8975 23.3641L40.6617 25.3289C40.6288 25.6026 40.4081 25.9363 40.1693 26.0751L36.8678 27.981C36.8349 28 36.8029 28.0139 36.7729 28.0239C36.7879 28.2237 36.9407 28.2907 37.1495 28.1708L40.4508 26.265C40.6896 26.1271 40.9094 25.7934 40.9423 25.5198L41.1791 23.5539C41.2071 23.3181 41.0873 23.2032 40.9005 23.2651ZM35.7111 29.4734C35.7142 29.5044 35.7142 29.5374 35.7102 29.5733L35.4974 31.5172C35.4675 31.7919 35.2496 32.1256 35.011 32.2634L31.7106 34.1683C31.6767 34.1873 31.6447 34.2022 31.6137 34.2122C31.6307 34.4111 31.7855 34.479 31.9923 34.3591L35.2917 32.4542C35.5304 32.3164 35.7491 31.9817 35.7792 31.708L35.9919 29.7632C36.0179 29.5283 35.8969 29.4135 35.7111 29.4734ZM40.4859 26.7154C40.488 26.7453 40.4869 26.7773 40.4829 26.8133L40.2462 28.7791C40.2132 29.0528 39.9934 29.3865 39.7547 29.5243L36.5022 31.4022C36.4672 31.4222 36.4343 31.4362 36.4033 31.4461C36.4203 31.645 36.5761 31.7128 36.7829 31.593L40.0353 29.7151C40.2741 29.5773 40.4949 29.2436 40.5278 28.9689L40.7646 27.0041C40.7926 26.7683 40.6728 26.6534 40.4859 26.7154ZM35.3465 32.8946C35.3505 32.9256 35.3505 32.9586 35.3465 32.9955L35.2017 34.437C35.1737 34.7107 34.9579 35.0454 34.7193 35.1832L31.3889 37.1061C31.3548 37.1261 31.3219 37.14 31.291 37.1501C31.308 37.3489 31.4628 37.4168 31.6706 37.2969L35.001 35.374C35.2398 35.2362 35.4555 34.9015 35.4835 34.6269L35.6283 33.1865C35.6522 32.9526 35.5313 32.8368 35.3465 32.8946ZM40.0714 30.1646C40.0735 30.1945 40.0724 30.2276 40.0684 30.2635L39.8906 31.7359C39.8577 32.0096 39.6379 32.3433 39.3991 32.4811L36.1656 34.346C36.1306 34.366 36.0977 34.381 36.0667 34.391C36.0846 34.5887 36.2395 34.6567 36.4463 34.5368L39.6798 32.6718C39.9186 32.534 40.1393 32.2003 40.1723 31.9266L40.3491 30.4543C40.3771 30.2175 40.2582 30.1037 40.0714 30.1646Z" fill="#27902E"/>
<path d="M41.5827 21.8327C41.5777 21.9026 41.5108 21.9815 41.4019 22.0445L32.3357 27.2788C32.162 27.3787 31.9112 27.4366 31.6485 27.4366C31.3977 27.4366 31.1581 27.3837 30.9903 27.2908L12.3785 16.9681C12.2537 16.8992 12.2217 16.8372 12.2207 16.8252H11.8208C11.8206 17.0045 11.942 17.1829 12.1848 17.3177L30.7966 27.6395C31.2792 27.9072 32.0583 27.9011 32.5357 27.6244L41.6019 22.3901C41.851 22.2464 41.979 22.0425 41.9826 21.8327H41.5827Z" fill="#27902E"/>
<path opacity="0.7" d="M41.5827 21.8327C41.5777 21.9026 41.5108 21.9815 41.4019 22.0445L32.3357 27.2788C32.162 27.3787 31.9112 27.4366 31.6485 27.4366C31.3977 27.4366 31.1581 27.3837 30.9903 27.2908L12.3785 16.9681C12.2537 16.8992 12.2217 16.8372 12.2207 16.8252H11.8208C11.8206 17.0045 11.942 17.1829 12.1848 17.3177L30.7966 27.6395C31.2792 27.9072 32.0583 27.9011 32.5357 27.6244L41.6019 22.3901C41.851 22.2464 41.979 22.0425 41.9826 21.8327H41.5827Z" fill="white"/>
</svg>