<svg viewBox="0 0 40 40" fill="none" xmlns="http://www.w3.org/2000/svg">
  <path
    d="M31.9133 4.95183C31.6163 4.45937 31.1974 4.05175 30.697 3.76828C30.1966 3.48482 29.6317 3.33507 29.0566 3.3335H10.9433C9.77992 3.3335 8.68492 3.9535 8.08659 4.95183L3.57159 12.4752C3.41535 12.7342 3.33293 13.031 3.33325 13.3335C3.33991 14.9422 3.93241 16.4934 4.99992 17.6968V31.6668C4.99992 33.5052 6.49492 35.0002 8.33325 35.0002H31.6666C33.5049 35.0002 34.9999 33.5052 34.9999 31.6668V17.6968C36.0674 16.4934 36.6599 14.9422 36.6666 13.3335C36.6669 13.031 36.5845 12.7342 36.4283 12.4752L31.9133 4.95183ZM33.3066 13.7518C33.2037 14.5565 32.8113 15.2962 32.2028 15.8327C31.5942 16.3692 30.8112 16.6657 29.9999 16.6668C28.1616 16.6668 26.6666 15.1718 26.6666 13.3335C26.6666 13.2202 26.6249 13.1202 26.6016 13.0135L26.6349 13.0068L25.3666 6.66683H29.0566L33.3066 13.7518ZM18.0316 6.66683H21.9666L23.3216 13.4418C23.2633 15.2285 21.7999 16.6668 19.9999 16.6668C18.1999 16.6668 16.7366 15.2285 16.6783 13.4418L18.0316 6.66683ZM10.9433 6.66683H14.6333L13.3666 13.0068L13.3999 13.0135C13.3749 13.1202 13.3333 13.2202 13.3333 13.3335C13.3333 15.1718 11.8383 16.6668 9.99992 16.6668C9.18867 16.6657 8.4056 16.3692 7.79705 15.8327C7.1885 15.2962 6.79613 14.5565 6.69325 13.7518L10.9433 6.66683ZM16.6666 31.6668V26.6668H23.3333V31.6668H16.6666ZM26.6666 31.6668V26.6668C26.6666 24.8285 25.1716 23.3335 23.3333 23.3335H16.6666C14.8283 23.3335 13.3333 24.8285 13.3333 26.6668V31.6668H8.33325V19.7635C8.86825 19.9018 9.41992 20.0002 9.99992 20.0002C10.9463 20.0007 11.8818 19.7992 12.7441 19.4091C13.6063 19.0191 14.3754 18.4495 14.9999 17.7385C16.2216 19.1252 18.0116 20.0002 19.9999 20.0002C21.9883 20.0002 23.7783 19.1252 24.9999 17.7385C25.6244 18.4495 26.3935 19.0191 27.2557 19.4091C28.118 19.7992 29.0536 20.0007 29.9999 20.0002C30.5799 20.0002 31.1316 19.9018 31.6666 19.7635V31.6668H26.6666Z"
    fill="url(#paint0_linear_2054_3418)"
  />
  <defs>
    <linearGradient
      id="paint0_linear_2054_3418"
      x1="19.9999"
      y1="3.3335"
      x2="19.9999"
      y2="35.0002"
      gradientUnits="userSpaceOnUse"
    >
      <stop stop-color="#3FB541" />
      <stop offset="1" stop-color="#666666" stop-opacity="0" />
    </linearGradient>
  </defs>
</svg>