<svg viewBox="0 0 50 43" fill="none" xmlns="http://www.w3.org/2000/svg">
<path d="M7.30921 18.2201C-2.4366 23.8469 -2.43639 32.9697 7.30975 38.5964C17.0559 44.2232 32.8572 44.2232 42.603 38.5964C52.3488 32.9696 52.3486 23.8468 42.6024 18.2201C32.8563 12.5933 17.055 12.5933 7.30921 18.2201Z" fill="white" fill-opacity="0.05"/>
<path d="M40.1122 8.02254C40.1123 8.02165 40.1123 8.02078 40.1124 8.01989L38.9457 7.2251C38.9453 7.23588 38.9441 7.24649 38.9427 7.25702C38.9424 7.25961 38.9419 7.26215 38.9415 7.26471C38.9405 7.27103 38.9392 7.27723 38.9378 7.28343C38.9363 7.29082 38.9345 7.2981 38.9324 7.30531C38.931 7.31021 38.9297 7.3151 38.9281 7.31991C38.9261 7.32593 38.9239 7.33183 38.9216 7.33771C38.9197 7.3427 38.9178 7.34769 38.9156 7.35259C38.9132 7.35801 38.9106 7.36332 38.9079 7.36863C38.9055 7.37348 38.9031 7.37833 38.9004 7.38305C38.8975 7.38836 38.8943 7.39348 38.8911 7.39863C38.8883 7.40307 38.8856 7.40756 38.8826 7.41186C38.8786 7.41767 38.8743 7.42323 38.87 7.4288C38.8672 7.43241 38.8645 7.43612 38.8616 7.43964C38.8536 7.44912 38.8454 7.45825 38.8365 7.46685C38.8294 7.47379 38.8219 7.48033 38.8142 7.48667C38.812 7.48852 38.8097 7.49031 38.8074 7.49209C38.8018 7.49647 38.7961 7.50065 38.7903 7.5047C38.7873 7.50674 38.7844 7.5088 38.7814 7.51075C38.7751 7.51484 38.7687 7.51866 38.7621 7.52235C38.7598 7.52368 38.7575 7.52514 38.7551 7.52642C38.7461 7.5312 38.7369 7.53564 38.7276 7.53963C38.7257 7.54043 38.7237 7.54107 38.7218 7.54185C38.7142 7.54491 38.7065 7.54775 38.6988 7.55029C38.6954 7.55137 38.6921 7.55228 38.6887 7.55326C38.6821 7.55519 38.6754 7.55695 38.6686 7.55848C38.665 7.55931 38.6614 7.56008 38.6577 7.56077C38.6507 7.56212 38.6435 7.56318 38.6364 7.56407C38.6331 7.56448 38.6298 7.56498 38.6265 7.5653C38.6161 7.56629 38.6056 7.56693 38.5949 7.56693H16.0182C15.951 7.56693 15.8893 7.54679 15.8384 7.51212L17.005 8.30691C17.0559 8.34158 17.1175 8.36172 17.1848 8.36172H39.7615C39.7722 8.36172 39.7827 8.36108 39.7932 8.36009C39.7965 8.35977 39.7997 8.35927 39.803 8.35886C39.8102 8.35796 39.8173 8.35691 39.8243 8.35556C39.828 8.35485 39.8316 8.3541 39.8352 8.35327C39.842 8.35174 39.8487 8.35 39.8553 8.34806C39.8587 8.34707 39.8621 8.34616 39.8654 8.34508C39.8732 8.34256 39.8808 8.33972 39.8883 8.33668C39.8903 8.3359 39.8923 8.33524 39.8942 8.33442C39.9036 8.33041 39.9127 8.32599 39.9217 8.32121C39.9241 8.31993 39.9264 8.31849 39.9288 8.31716C39.9353 8.31348 39.9417 8.30965 39.948 8.30556C39.951 8.30361 39.954 8.30155 39.9569 8.29952C39.9598 8.29752 39.9627 8.29569 39.9655 8.29363C39.9684 8.29148 39.9712 8.28915 39.974 8.28691C39.9763 8.2851 39.9786 8.28331 39.9809 8.28146C39.9886 8.27514 39.996 8.26862 40.0032 8.26166C40.012 8.25306 40.0203 8.24391 40.0282 8.23443C40.0289 8.23368 40.0296 8.23301 40.0302 8.23223C40.0325 8.22947 40.0345 8.22642 40.0367 8.22358C40.041 8.21802 40.0453 8.21246 40.0493 8.20667C40.0501 8.20539 40.0512 8.20422 40.052 8.20294C40.0541 8.19988 40.0558 8.19656 40.0578 8.19342C40.061 8.1883 40.0642 8.18317 40.0671 8.17786C40.068 8.17628 40.069 8.17482 40.0699 8.17321C40.0716 8.17003 40.073 8.16667 40.0746 8.16344C40.0772 8.15816 40.0798 8.15285 40.0822 8.14742C40.083 8.14562 40.084 8.14392 40.0848 8.14209C40.0861 8.13898 40.087 8.13571 40.0883 8.13255C40.0906 8.12667 40.0927 8.12076 40.0947 8.11474C40.0954 8.11262 40.0964 8.1106 40.097 8.10847C40.0979 8.10577 40.0983 8.10291 40.0991 8.10019C40.1011 8.09296 40.1029 8.08568 40.1045 8.07829C40.1051 8.07559 40.106 8.073 40.1065 8.07028C40.1072 8.06676 40.1076 8.06314 40.1082 8.05959C40.1086 8.05703 40.109 8.05449 40.1094 8.0519C40.1106 8.04215 40.1117 8.03241 40.1122 8.02254Z" fill="#B34444"/>
<mask id="mask0_0_1" style="mask-type:luminance" maskUnits="userSpaceOnUse" x="39" y="2" width="2" height="2">
<path d="M39.5703 2.07031L40.7369 2.8651C40.8263 2.926 40.8825 3.03175 40.877 3.15208L39.7104 2.35729C39.7159 2.23696 39.6597 2.13121 39.5703 2.07031Z" fill="white"/>
</mask>
<g mask="url(#mask0_0_1)">
<path d="M39.5703 2.07031L40.7369 2.8651C40.745 2.87062 40.7528 2.87648 40.7603 2.8827L39.5937 2.08791C39.5862 2.08169 39.5784 2.07583 39.5703 2.07031Z" fill="#A33E3E"/>
<path d="M39.5933 2.08789L40.7599 2.88268C40.7696 2.89073 40.7789 2.89939 40.7876 2.90856L39.621 2.11377C39.6123 2.1046 39.603 2.09595 39.5933 2.08789Z" fill="#A84040"/>
<path d="M39.6211 2.11377L40.7877 2.90856C40.7984 2.91977 40.8082 2.93181 40.8172 2.94453L39.6506 2.14974C39.6416 2.13702 39.6318 2.12501 39.6211 2.11377Z" fill="#AD4242"/>
<path d="M39.6509 2.14941L40.8175 2.9442C40.8333 2.96665 40.8464 2.99132 40.8562 3.01766L39.6896 2.22287C39.6798 2.19653 39.6667 2.17186 39.6509 2.14941Z" fill="#B34444"/>
<path d="M39.6895 2.22314L40.8561 3.01793C40.8623 3.03462 40.8672 3.05199 40.8707 3.06993L39.7041 2.27514C39.7006 2.2572 39.6957 2.23983 39.6895 2.22314Z" fill="#B84646"/>
<path d="M39.7041 2.2749L40.8707 3.06969C40.8759 3.09599 40.878 3.12347 40.8767 3.15178L39.7101 2.35699C39.7114 2.32868 39.7093 2.3012 39.7041 2.2749Z" fill="#B34444"/>
</g>
<path d="M39.7103 2.35693L40.8769 3.1517L40.1124 8.01953L38.9458 7.22474L39.7103 2.35693Z" fill="#B34444"/>
<path d="M39.4233 2.03711C39.6085 2.03711 39.7517 2.19005 39.7431 2.37889L38.9786 7.24672C38.97 7.43557 38.813 7.58851 38.6278 7.58851H16.0511C15.8657 7.58851 15.7227 7.43557 15.7313 7.24672L16.4956 2.37889C16.5042 2.19005 16.6614 2.03711 16.8466 2.03711H39.4233Z" fill="url(#paint0_radial_0_1)"/>
<mask id="mask1_0_1" style="mask-type:luminance" maskUnits="userSpaceOnUse" x="13" y="30" width="3" height="2">
<path d="M14.711 31.7621L13.5444 30.9673C13.7651 31.1176 14.033 31.2054 14.3266 31.2054L15.4932 32.0002C15.1996 32.0003 14.9318 31.9124 14.711 31.7621Z" fill="white"/>
</mask>
<g mask="url(#mask1_0_1)">
<path d="M14.3266 31.2054L15.4932 32.0002C15.1996 32.0002 14.9317 31.9124 14.711 31.7621L13.5444 30.9673C13.7651 31.1176 14.033 31.2054 14.3266 31.2054Z" fill="#858585"/>
</g>
<mask id="mask2_0_1" style="mask-type:luminance" maskUnits="userSpaceOnUse" x="38" y="7" width="3" height="4">
<path d="M38.377 7.83496L39.5436 8.62975C39.9713 8.92114 40.222 9.44747 40.1406 10.0248L38.974 9.23C39.0554 8.65268 38.8047 8.12635 38.377 7.83496Z" fill="white"/>
</mask>
<g mask="url(#mask2_0_1)">
<path d="M38.377 7.83496L39.5436 8.62975C39.5786 8.6536 39.6124 8.67902 39.645 8.70593L38.4784 7.91114C38.4458 7.88423 38.412 7.85881 38.377 7.83496Z" fill="#A3A3A3"/>
<path d="M38.4785 7.91113L39.6451 8.70592C39.688 8.74139 39.7287 8.77941 39.767 8.81975L38.6004 8.02496C38.5622 7.98462 38.5214 7.94658 38.4785 7.91113Z" fill="#A8A8A8"/>
<path d="M38.6006 8.0249L39.7672 8.81969C39.8131 8.86807 39.8556 8.91979 39.8942 8.97446L38.7276 8.17967C38.689 8.125 38.6465 8.07328 38.6006 8.0249Z" fill="#ADADAD"/>
<path d="M38.7275 8.17969L39.8941 8.97448C39.965 9.07471 40.0232 9.18483 40.0666 9.30244L38.9 8.50765C38.8566 8.39005 38.7984 8.27992 38.7275 8.17969Z" fill="#B3B3B3"/>
<path d="M38.8999 8.50732L40.0665 9.30211C40.0926 9.3728 40.1133 9.4462 40.1282 9.52174L38.9616 8.72695C38.9467 8.65141 38.9259 8.57802 38.8999 8.50732Z" fill="#B8B8B8"/>
<path d="M38.9614 8.72705L40.128 9.52184C40.1513 9.6399 40.1605 9.76328 40.1537 9.88987L38.9871 9.09508C38.9939 8.96848 38.9847 8.84514 38.9614 8.72705Z" fill="#B3B3B3"/>
<path d="M38.9872 9.09521L40.1538 9.89001C40.1515 9.93452 40.1471 9.97942 40.1407 10.0246L38.9741 9.22985C38.9805 9.18465 38.9849 9.13973 38.9872 9.09521Z" fill="#ADADAD"/>
</g>
<path d="M34.548 31.2051L35.7147 31.9999H15.4933L14.3267 31.2051H34.548Z" fill="#808080"/>
<path d="M38.974 9.22998L40.1406 10.0247L37.2291 30.6556L36.0625 29.8608L38.974 9.22998Z" fill="#B7B7B7"/>
<mask id="mask3_0_1" style="mask-type:luminance" maskUnits="userSpaceOnUse" x="34" y="29" width="4" height="3">
<path d="M36.0627 29.8608L37.2293 30.6556C37.1217 31.4185 36.4663 32.0002 35.7145 32.0002L34.5479 31.2054C35.2997 31.2054 35.9551 30.6237 36.0627 29.8608Z" fill="white"/>
</mask>
<g mask="url(#mask3_0_1)">
<path d="M36.0629 29.8608L37.2295 30.6556C37.226 30.6803 37.222 30.7047 37.2174 30.729L36.0508 29.9342C36.0554 29.9099 36.0595 29.8855 36.0629 29.8608Z" fill="#ADADAD"/>
<path d="M36.0505 29.9341L37.2171 30.7289C37.2062 30.7861 37.1923 30.8422 37.1754 30.897L36.0088 30.1022C36.0257 30.0474 36.0396 29.9913 36.0505 29.9341Z" fill="#A8A8A8"/>
<path d="M36.0089 30.1021L37.1755 30.8968C37.1601 30.9469 37.1423 30.9958 37.1222 31.0435L35.9556 30.2487C35.9756 30.2011 35.9935 30.1521 36.0089 30.1021Z" fill="#A3A3A3"/>
<path d="M35.9555 30.249L37.1221 31.0438C37.1025 31.0902 37.0809 31.1354 37.0572 31.1794L35.8906 30.3846C35.9143 30.3406 35.9359 30.2954 35.9555 30.249Z" fill="#9E9E9E"/>
<path d="M35.8909 30.3843L37.0575 31.1791C37.0335 31.2236 37.0075 31.2668 36.9796 31.3086L35.813 30.5138C35.8409 30.472 35.8669 30.4288 35.8909 30.3843Z" fill="#999999"/>
<path d="M35.8126 30.5137L36.9792 31.3085C36.9498 31.3524 36.9183 31.3948 36.8849 31.4355L35.7183 30.6407C35.7517 30.6 35.7832 30.5577 35.8126 30.5137Z" fill="#949494"/>
<path d="M35.7185 30.6406L36.8851 31.4354C36.8478 31.4807 36.8081 31.5238 36.7662 31.5646L35.5996 30.7698C35.6415 30.729 35.6812 30.6859 35.7185 30.6406Z" fill="#8F8F8F"/>
<path d="M35.5996 30.77L36.7662 31.5648C36.7148 31.6148 36.6602 31.6612 36.6026 31.7036L35.436 30.9088C35.4936 30.8664 35.5482 30.82 35.5996 30.77Z" fill="#8A8A8A"/>
<path d="M35.436 30.9087L36.6026 31.7035C36.3494 31.8902 36.041 31.9999 35.7145 31.9999L34.5479 31.2051C34.8744 31.2051 35.1828 31.0954 35.436 30.9087Z" fill="#858585"/>
</g>
<path d="M37.5951 7.59668C38.4578 7.59668 39.0978 8.35467 38.9743 9.2299L36.0628 29.8608C35.9552 30.6236 35.2998 31.2054 34.5479 31.2054H14.3266C13.4639 31.2054 12.8239 30.4474 12.9474 29.5722L15.8589 8.94146C15.9665 8.17839 16.6219 7.59668 17.3737 7.59668H37.5951Z" fill="url(#paint1_linear_0_1)"/>
<path d="M37.2639 7.58842C38.1224 7.58217 38.9407 8.36773 38.9894 9.28484C38.1863 15.4404 36.202 21.6912 33.0499 27.7955C32.788 28.5898 31.9962 29.1889 31.2482 29.1836C24.5371 29.1362 17.826 29.0888 11.1149 29.0415C10.2558 29.0352 9.79614 28.2558 10.0876 27.3578C13.1839 21.3414 15.13 15.1843 15.9125 9.12447C15.8667 8.33773 16.3816 7.736 17.1306 7.73055C23.8417 7.68318 30.5528 7.63579 37.2639 7.58842Z" fill="white"/>
<path d="M19.8184 23.0554L20.2008 21.0279C20.2507 20.6949 20.4336 20.3551 20.7498 20.0086C21.0657 19.6623 21.4387 19.3134 21.869 18.9622C22.2989 18.611 22.7582 18.2722 23.2465 17.9456C23.7349 17.6192 24.1873 17.3043 24.6041 17.0011C25.0206 16.6979 25.3686 16.4155 25.6479 16.1539C25.9269 15.8922 26.0719 15.6589 26.0826 15.4535C26.0996 15.1294 26.0505 14.875 25.9357 14.6902C25.8207 14.5054 25.6715 14.4083 25.4879 14.3986C25.3041 14.389 25.1427 14.4212 25.0035 14.4951C24.864 14.5691 24.756 14.669 24.679 14.795C24.6019 14.921 24.5434 15.0588 24.503 15.2083C24.4627 15.358 24.4386 15.5083 24.4307 15.6595L24.4222 15.8215C24.4205 15.854 24.4246 15.876 24.435 15.8872C24.1421 15.8937 23.8381 15.9047 23.5232 15.9207C23.2519 15.9284 22.9506 15.9423 22.6192 15.9628C22.2875 15.9835 21.959 16.0013 21.6332 16.0168C21.6269 15.9298 21.6234 15.8403 21.6229 15.7481C21.6221 15.6562 21.624 15.5722 21.628 15.4965C21.6613 14.8592 21.8153 14.2957 22.0902 13.8064C22.3649 13.317 22.7083 12.9125 23.1206 12.5928C23.5327 12.2732 23.9948 12.0348 24.5068 11.8773C25.0188 11.7201 25.5232 11.6543 26.0203 11.6803C26.4307 11.7018 26.819 11.7872 27.185 11.9363C27.5509 12.0855 27.87 12.3 28.1425 12.5796C28.4148 12.8594 28.6269 13.2062 28.7786 13.6204C28.9301 14.0346 28.9913 14.5227 28.9619 15.0843C28.9336 15.6247 28.7655 16.144 28.4579 16.6423C28.1499 17.1408 27.7347 17.6228 27.2122 18.0883C26.6894 18.554 26.0756 19.0012 25.3707 19.43C24.6657 19.859 23.9024 20.2631 23.081 20.6425C23.3727 20.6578 23.7485 20.6668 24.2089 20.6691C24.6691 20.6716 25.1407 20.6666 25.6235 20.6538C26.106 20.6412 26.6295 20.628 27.1937 20.6141L26.8113 22.9503C26.5509 22.9585 26.2553 22.9646 25.9247 22.9689C25.5939 22.9734 25.2418 22.9765 24.868 22.9786C24.4941 22.9808 24.1092 22.985 23.7136 22.9912C23.3177 22.9977 22.9356 23.002 22.5673 23.0043C21.6888 23.0233 20.7723 23.0403 19.8184 23.0554Z" fill="#5B5B5B"/>
<path d="M25.9605 2.03871H24.4285C23.6211 2.03871 22.9666 2.69321 22.9666 3.50059C22.9666 3.75575 23.032 3.99559 23.1467 4.20429C23.1471 4.20521 23.1478 4.2059 23.1483 4.20681C23.1606 4.22924 23.1737 4.25144 23.1874 4.27318C23.1876 4.27386 23.1879 4.27455 23.1883 4.27501C23.2755 4.4352 23.325 4.61897 23.325 4.8144C23.325 5.43939 22.8183 5.94606 22.1933 5.94606C21.8274 5.94606 21.5022 5.77236 21.2953 5.50301C21.247 5.42932 21.2017 5.35357 21.1596 5.27576C20.9143 4.8231 20.7749 4.30453 20.7749 3.75346C20.7749 1.65051 22.2075 0.553711 23.9747 0.553711C25.0116 0.553711 25.9605 1.40287 25.9605 2.03871Z" fill="url(#paint2_linear_0_1)"/>
<path d="M23.2814 4.49707C23.307 4.59156 23.3209 4.69086 23.3209 4.79347C23.3209 5.41747 22.8151 5.92332 22.1911 5.92332C21.7398 5.92332 21.3505 5.65868 21.1694 5.27621C21.2997 5.75638 21.7383 6.10965 22.2597 6.10965C22.8837 6.10965 23.3896 5.6038 23.3896 4.9798C23.3896 4.80707 23.3507 4.64346 23.2814 4.49707Z" fill="#3F3F3F"/>
<path d="M35.1861 2.02894H33.654C32.8467 2.02894 32.1922 2.68345 32.1922 3.49082C32.1922 3.74599 32.2576 3.98582 32.3723 4.19453C32.3727 4.19544 32.3734 4.19613 32.3739 4.19705C32.3862 4.21947 32.3993 4.24167 32.413 4.26341C32.4132 4.2641 32.4135 4.26479 32.4139 4.26524C32.5011 4.42544 32.5505 4.6092 32.5505 4.80464C32.5505 5.42962 32.0439 5.93629 31.4189 5.93629C31.053 5.93629 30.7278 5.7626 30.5209 5.49324C30.4726 5.41955 30.4273 5.3438 30.3852 5.266C30.1399 4.81333 30.0005 4.29476 30.0005 3.7437C30.0005 1.64075 31.4331 0.543945 33.2002 0.543945C34.2372 0.543945 35.1861 1.39311 35.1861 2.02894Z" fill="url(#paint3_linear_0_1)"/>
<path d="M32.5099 4.49707C32.5355 4.59156 32.5494 4.69086 32.5494 4.79347C32.5494 5.41747 32.0436 5.92332 31.4196 5.92332C30.9683 5.92332 30.579 5.65868 30.3979 5.27621C30.5282 5.75638 30.9668 6.10965 31.4883 6.10965C32.1123 6.10965 32.6181 5.6038 32.6181 4.9798C32.6181 4.80707 32.5792 4.64346 32.5099 4.49707Z" fill="#3F3F3F"/>
<defs>
<radialGradient id="paint0_radial_0_1" cx="0" cy="0" r="1" gradientUnits="userSpaceOnUse" gradientTransform="translate(19.8518 3.22079) scale(17.9419 12.4319)">
<stop stop-color="#FFA1BE"/>
<stop offset="0.018" stop-color="#FF9CB6"/>
<stop offset="0.1148" stop-color="#FF8291"/>
<stop offset="0.2049" stop-color="#FF7077"/>
<stop offset="0.2851" stop-color="#FF6567"/>
<stop offset="0.3471" stop-color="#FF6161"/>
<stop offset="0.5321" stop-color="#F55460"/>
<stop offset="0.8768" stop-color="#D9305D"/>
<stop offset="1" stop-color="#CE225C"/>
</radialGradient>
<linearGradient id="paint1_linear_0_1" x1="26.1765" y1="11.3279" x2="25.5587" y2="34.4546" gradientUnits="userSpaceOnUse">
<stop offset="0.1333" stop-color="#BCBCBC"/>
<stop offset="0.3256" stop-color="#C1C1C1"/>
<stop offset="0.5609" stop-color="#D0D0D0"/>
<stop offset="0.8174" stop-color="#E9E9E9"/>
<stop offset="1" stop-color="white"/>
</linearGradient>
<linearGradient id="paint2_linear_0_1" x1="23.3677" y1="-1.29933" x2="23.3677" y2="7.00354" gradientUnits="userSpaceOnUse">
<stop stop-color="#AE9E94"/>
<stop offset="0.000686208" stop-color="#AD9D93"/>
<stop offset="0.0292" stop-color="#928781"/>
<stop offset="0.0598" stop-color="#7C7673"/>
<stop offset="0.0936" stop-color="#6D6A69"/>
<stop offset="0.1329" stop-color="#646263"/>
<stop offset="0.1902" stop-color="#616061"/>
<stop offset="0.267" stop-color="#7D7C7D"/>
<stop offset="0.3424" stop-color="#9D9C9D"/>
<stop offset="0.46" stop-color="#E8E8E8"/>
<stop offset="0.6729" stop-color="#9D9C9D"/>
<stop offset="0.8703" stop-color="#494949"/>
<stop offset="1" stop-color="#9D9C9D"/>
</linearGradient>
<linearGradient id="paint3_linear_0_1" x1="32.5933" y1="-1.30908" x2="32.5933" y2="6.99378" gradientUnits="userSpaceOnUse">
<stop stop-color="#AE9E94"/>
<stop offset="0.000686208" stop-color="#AD9D93"/>
<stop offset="0.0292" stop-color="#928781"/>
<stop offset="0.0598" stop-color="#7C7673"/>
<stop offset="0.0936" stop-color="#6D6A69"/>
<stop offset="0.1329" stop-color="#646263"/>
<stop offset="0.1902" stop-color="#616061"/>
<stop offset="0.267" stop-color="#7D7C7D"/>
<stop offset="0.3424" stop-color="#9D9C9D"/>
<stop offset="0.46" stop-color="#E8E8E8"/>
<stop offset="0.6729" stop-color="#9D9C9D"/>
<stop offset="0.8703" stop-color="#494949"/>
<stop offset="1" stop-color="#9D9C9D"/>
</linearGradient>
</defs>
</svg>
