<svg
  xmlns="http://www.w3.org/2000/svg"
  width="40"
  height="40"
  viewBox="0 0 40 40"
  fill="none"
>
  <path
    d="M34.9999 8.3335H4.99992C4.55789 8.3335 4.13397 8.50909 3.82141 8.82165C3.50885 9.13421 3.33325 9.55814 3.33325 10.0002V16.6668H4.82159C6.48159 16.6668 8.02159 17.8018 8.28825 19.4402C8.36949 19.9186 8.34535 20.4089 8.21753 20.877C8.0897 21.3451 7.86126 21.7797 7.54816 22.1504C7.23505 22.5211 6.84482 22.819 6.4047 23.0234C5.96458 23.2277 5.48516 23.3336 4.99992 23.3335H3.33325V30.0002C3.33325 30.4422 3.50885 30.8661 3.82141 31.1787C4.13397 31.4912 4.55789 31.6668 4.99992 31.6668H34.9999C35.4419 31.6668 35.8659 31.4912 36.1784 31.1787C36.491 30.8661 36.6666 30.4422 36.6666 30.0002V23.3335H34.9999C34.5147 23.3336 34.0353 23.2277 33.5951 23.0234C33.155 22.819 32.7648 22.5211 32.4517 22.1504C32.1386 21.7797 31.9101 21.3451 31.7823 20.877C31.6545 20.4089 31.6303 19.9186 31.7116 19.4402C31.9783 17.8018 33.5183 16.6668 35.1783 16.6668H36.6666V10.0002C36.6666 9.55814 36.491 9.13421 36.1784 8.82165C35.8659 8.50909 35.4419 8.3335 34.9999 8.3335ZM14.9999 15.0002C15.4419 15.0002 15.8659 15.1758 16.1784 15.4883C16.491 15.8009 16.6666 16.2248 16.6666 16.6668C16.6666 17.1089 16.491 17.5328 16.1784 17.8453C15.8659 18.1579 15.4419 18.3335 14.9999 18.3335C14.5579 18.3335 14.134 18.1579 13.8214 17.8453C13.5088 17.5328 13.3333 17.1089 13.3333 16.6668C13.3333 16.2248 13.5088 15.8009 13.8214 15.4883C14.134 15.1758 14.5579 15.0002 14.9999 15.0002ZM13.6666 25.6668L23.6666 12.3335L26.3333 14.3335L16.3333 27.6668L13.6666 25.6668ZM24.9999 25.0002C24.5579 25.0002 24.134 24.8246 23.8214 24.512C23.5088 24.1994 23.3333 23.7755 23.3333 23.3335C23.3333 22.8915 23.5088 22.4675 23.8214 22.155C24.134 21.8424 24.5579 21.6668 24.9999 21.6668C25.4419 21.6668 25.8659 21.8424 26.1784 22.155C26.491 22.4675 26.6666 22.8915 26.6666 23.3335C26.6666 23.7755 26.491 24.1994 26.1784 24.512C25.8659 24.8246 25.4419 25.0002 24.9999 25.0002Z"
    fill="url(#paint0_linear_2054_3414)"
  />
  <defs>
    <linearGradient
      id="paint0_linear_2054_3414"
      x1="19.9999"
      y1="8.3335"
      x2="19.9999"
      y2="31.6668"
      gradientUnits="userSpaceOnUse"
    >
      <stop stop-color="#F5B300" />
      <stop offset="1" stop-color="#666666" stop-opacity="0" />
    </linearGradient>
  </defs>
</svg>